<svg xmlns="http://www.w3.org/2000/svg" viewBox="0 0 448 350" width="448" height="350"><g transform="scale(1.11111)"><path fill="#262230" d="m147.8 3.7c0 0 0 0 3 0c34 0 67 5 100 15c2 0 4 1 6 1c9 3 17 5 25 9c2 0 4 1 6 2c4 1 8 3 12 5c4 2 8 4 13 5c4 2 8 4 12 7c2 1 4 2 6 3c4 2 8 5 13 8c0 0 1 1 2 1c11 7 21 15 30 24c1 1 1 2 2 2c21 21 21 21 22 33c-1 7-6 12-9 18c-6 9-10 18-15 27c0 1 0 2-1 2c-2 5-4 10-5 15c-1 3-2 5-3 8c-3 7-5 14-7 21c1 0 3 1 4 1c6 1 9 6 12 11c1 7-1 15-3 22c-1 3-1 7-2 11c-1 8-3 17-7 24c1 0 2 0 2 0c6 2 11 6 14 10c1 4 2 5 1 8c-3 7-9 10-16 12c-28 7-58 1-86-3c-3-1-6-1-9-1c-9-2-19-3-28-5c-1 0-2 0-3 0c-21-4-43-8-64-13c0 0 0 0-3 0c-13-3-26-7-39-11c-2-1-5-2-7-2c-5-2-10-4-14-5c-4-2-7-3-10-4c-4-1-8-3-12-5c-3-1-5-2-7-2c-20-9-40-20-55-36c-2-1-3-3-4-4c-10-10-18-24-20-38c0-1 0-1 0-2c0-6 1-11 4-16c6-5 12-5 19-5c9 0 15 3 22 6c1 1 1 1 3 2c3 1 5 2 7 3c2-6 4-12 6-19c0-2 1-4 1-6c2-5 3-11 4-17c0-1 0-2 0-3c6-29 7-59 4-88c0-6 1-11 5-16c18-15 47-15 69-15z"/><path fill="#151521" d="m311 57c4 1 6 2 10 4c1 0 2 1 3 1c0 1 1 1 2 2c1 0 2 1 3 2c9 5 16 10 24 16c1 0 1 1 2 1c32 26 32 26 34 40c1 0 1 0 2 0c0-2 1-4 1-6c3 1 5 3 7 5c-2 4-5 9-7 13c-6 9-11 19-16 29c0 1-1 1-1 2c-2 5-4 10-5 15c-1 3-2 5-3 8c-3 7-5 14-7 21c1 0 2 0 4 1c6 1 8 5 11 10c2 8 0 15-2 23c-1 3-1 7-2 10c-1 9-3 18-7 25c-1 2-1 2-1 4c-60-8-119-25-176-46c-1-1-1-1-2-1c-2-1-2-1-3-3c0-2 0-4 0-6c4-1 5-1 8 0c3 2 5 2 9 2c-7-3-13-6-20-8c-2-1-2-1-3-3c-3-1-3-1-5-1c-1-5 1-7 4-11c2-2 2-2 4-3c3 0 5 1 8 1c4 1 8 2 12 3c3 1 3 1 5 2c3 1 5 1 7 2c5 1 10 2 15 4c0 0 1 1 2 1c2 1 4 1 6 2c0-1 0-2 0-3c0 0 0 0-3-1c-4-1-9-4-13-6c-4-1-4-1-8-2c-4-1-5-3-7-6c-2-1-4-1-6-2c-2-1-5-3-7-5c-2-1-2-1-5-2c-3-1-3-1-4-4c-1-4-1-6 0-9c0-1 1-2 1-4c2-6 6-8 12-11c5 0 10 1 15 3c2 1 4 1 7 1c7 2 14 5 21 7c4 2 9 4 14 5c0 0 0 0 2-3c-1 0-1 0-2-1c-5-1-11-4-17-6c-5-1-11-3-16-5c0-1 0-1 0-2c5 0 8 1 13 2c0 1 1 1 2 1c2 1 4 2 6 2c1 1 2 2 4 2c15 6 30 12 43 20c3 2 3 2 6 3c0-3 0-3-1-6c-2-2-2-2-5-3c-1-1-3-2-4-2c-1-1-2-2-4-2c0 0-1-1-2-1c-21-11-43-19-66-26c0-1 0-1 0-2c6 0 11 1 16 4c3 1 6 2 9 2c3 1 7 3 10 4c1 0 1 0 2 1c4 1 8 3 12 5c4 2 8 3 12 3c3-7 5-14 8-21c0-2 0-3 1-4c3-9 3-9 4-12c2-7 4-14 7-20c0-2 1-3 1-4c2-6 5-12 8-19c1-2 2-5 3-8c2-4 4-8 6-13c3-7 3-7 2-11z"/><path fill="#0e0e17" d="m5 168c3 1 5 2 8 3c0-1 0-1 0-2c5-3 13-2 18 0c10 3 18 7 26 11c2 1 3 2 4 2c8 5 17 9 25 14c14 8 29 15 43 22c3 1 5 2 8 3c35 17 71 31 108 42c2 1 4 1 6 2c28 8 57 15 86 19c28 5 28 5 37 11c0-1 0-3 0-4c2 0 5 1 7 1c0 4 0 6-3 9c-9 10-23 10-36 11c-21 0-42-4-63-7c-3 0-6 0-9-1c-9-1-19-2-28-4c-1 0-1 0-3 0c-22-4-43-8-64-13c-1 0-2 0-3-1c-13-3-26-6-39-10c-3-1-5-2-7-3c-5-1-10-3-15-5c-3-1-6-2-9-3c-5-1-9-3-13-5c-2-1-4-2-6-3c-20-9-40-19-55-35c-2-2-3-3-4-4c-12-13-20-28-20-46c0-2 0-2 1-4z"/><path fill="#7d1a2d" d="m112 137.9c27-1 54 3 81 9c1 0 2 0 3 1c28 6 75 17 96 38c0 2 0 4 0 6c-4 0-7-2-11-4c-6-4-12-7-19-10c-1 0-2-1-3-1c-8-4-16-7-24-10c-1 0-2-1-3-1c-5-2-9-3-14-4c0 1 0 1 0 2c1 0 2 0 3 1c11 2 22 6 32 11c-1 1-1 3-2 4c-1 0-1 0-2-1c-19-6-19-6-28-8c-2-1-2-1-5-3c-2 0-4-1-5-1c-4 0-6-1-9-2c-3-1-4-1-7 0c-1 0-1-1-2-1c-4 2-7 3-9 7c-1 4-1 4-2 7c0 0 0 0-1 3c0 3 0 6 2 9c3 1 3 1 6 2c1 1 3 2 4 3c3 2 5 3 8 4c3 1 3 1 5 4c3 3 4 3 8 3c5 2 10 4 14 6c0 0 0 0 2 1c1 1 3 1 4 2c0 1 0 2 0 3c-5-1-10-2-16-4c-4-2-8-3-13-3c-3-1-5-2-8-3c-3-1-7-2-10-3c0 0 0 0-2 1c0-1 0-1 0-2c-4 0-6 0-9 2c-3 3-4 5-4 9c0 1 0 1 0 2c2 0 3 0 5 0c0 1 0 2 0 3c1 0 1 0 2 0c3 1 6 2 9 3c2 1 3 1 4 2c3 1 5 2 8 4c0 0 0 1 0 1c-6 0-11-1-17-3c0 3 0 5 0 8c1 0 1 0 2 1c6 1 13 4 19 6c44 16 89 27 135 36c1 0 2 0 3 0c2 1 4 1 6 2c5 1 10 2 15 3c0-1-1-3-1-4c1 0 1-1 2-1c6 2 12 6 16 11c0 1 0 2 0 3c-2 0-4-1-6-1c0 1 0 3 0 4c-1 0-1 0-2-1c-9-3-19-6-28-7c-1-1-2-1-4-1c-4-1-9-2-14-3c-11-1-21-4-32-6c-1 0-2-1-3-1c-13-3-26-6-38-10c-4-1-7-2-11-3c-47-13-93-33-137-56c-6-3-12-7-18-10c-9-4-17-9-26-13c-7-5-15-9-23-12c-1 0-2-1-3-1c-7-3-14-2-22-2c0 1 0 1 0 2c-4 0-6-1-8-4c3-5 5-7 10-10c3-1 6-1 9-1c1 0 2 0 2 0c13 1 23 7 34 13c0 2 0 3 0 5c16 9 32 18 49 26c1 1 2 1 3 2c3 1 6 2 8 4c1 0 2 1 3 1c3 2 7 4 11 4c0-1 0-1 0-2c-1 0-2 0-3-1c-4-1-8-3-11-5c-9-5-9-5-13-7c-3-1-5-2-8-4c-1 0-2 0-2-1c-1 0-1-1-2-1c0-1 0-1 0-2c32 0 32 0 46 2c0-1-1-1-1-2c-3-1-7-1-10-1c-1-1-2-1-3-1c-7-1-13-1-20-1c0 0-1 0-2 0c-3 0-7 0-10 0c-1 0-1 0-4 0c-1 0-3 0-4 0c-4-1-6-3-9-5c-1-1-2-1-3-2c-3-2-3-2-4-5c1-7 3-13 8-18c3-1 6-1 8-2c1 0 2 0 3 0c4-1 6-1 10 0c0 1 0 3 0 4c0 0 0 0 1-2c2-3 2-3 4-3c4 0 9 0 13 1c0-1 0-1 0-2c-8 0-15 0-23 0c0-1 0-2 0-3c6-1 13-1 19-1c0-1 0-1 3-1c2 0 5 0 7 0c0 0 0-1 0-1c-12 0-23 0-34 2c-1 0-1 0-3 0c-6 1-11 3-16 5c0-4 0-4 3-6c12-6 25-7 38-8z"/><path fill="#540b1e" d="m301 177c8-1 13 2 19 7c8 7 13 14 17 24c2 5 2 5 5 7c8 1 8 1 11-1c2 0 4 0 6 0c0-1 0-2 0-3c3 0 6-1 9 1c4 3 7 7 8 12c0 7-2 13-3 20c-1 3-1 7-2 10c-1 9-3 18-7 25c-1 2-1 2-1 4c-6-1-12-2-18-3c-1 0-2 0-3-1c-4 0-7-1-11-2c-1 0-2 0-3 0c-18-4-36-7-53-12c0 0 0-1 0-1c1 0 1 0 6-1c0-1 0-1 0-2c2-34 2-34 8-40c0-1 1-3 1-4c0-1 0-2 0-3c0-1 1-2 1-3c1-11 4-21 7-31c1 0 1 0 2 0c0-1 1-2 1-3z"/><path fill="#590d20" d="m193 163c1 0 2 1 3 1c1 0 2-1 3-1c2 0 2 0 5 1c4 2 8 3 12 3c7 2 14 5 21 7c4 2 9 4 14 5c1-1 2-2 3-3c4 2 7 4 11 5c1 1 1 1 3 2c1 0 2 1 3 1c1 1 1 1 3 2c8 3 8 3 9 6c0 3-1 5-2 8c-1 3-2 7-3 10c-1 2-1 2-2 3c0 2-1 4-1 6c0 0 0 0-1 3c0 0 0 1 0 2c-6-1-11-2-16-4c0 0 0 0-3-1c-4-1-9-2-13-4c-1 0-2-1-3-1c-1 0-2-1-3-1c2 3 6 4 9 6c6 2 13 5 19 8c1 1 1 1 2 1c3 2 6 4 9 6c0 1 0 1 0 2c1 0 1 1 2 1c0 0-1 1-1 1c0 1-1 3-1 4c-1 5-2 8-5 12c-7-1-17-2-22-7c-2 0-3-1-5-1c-6-2-12-4-19-6c-6-3-12-5-19-6c-5-2-5-2-7-4c0 0 1-1 1-1c-7-3-13-6-20-8c-2-1-2-1-3-3c-3-1-3-1-5-1c-1-5 1-7 4-11c2-2 2-2 4-3c3 0 5 1 8 1c4 1 8 2 12 3c3 1 3 1 5 2c3 1 5 1 7 2c5 1 10 2 15 4c0 0 1 1 2 1c2 1 4 1 6 2c0-1 0-2 0-3c-1 0-2-1-3-1c-4-1-9-4-13-6c-4-1-4-1-8-2c-4-1-5-3-7-6c-2-1-4-1-6-2c-2-1-5-3-7-5c-2-1-2-1-5-2c-3-1-3-1-4-4c-1-4-1-6 0-9c0-1 1-2 1-4c2-5 6-8 11-11z"/><path fill="#d8bb84" d="m147.8 3.7c0 0 0 0 3 0c34 0 67 5 100 15c2 0 4 1 6 1c9 3 17 5 25 9c2 0 4 1 6 2c4 1 8 3 12 5c4 2 8 4 13 5c4 2 8 4 12 7c2 1 4 2 6 3c4 2 8 5 13 8c0 0 1 1 2 1c11 7 21 15 30 24c1 1 1 2 2 2c21 21 21 21 21 34c-3 0-4-1-7-3c0 2 0 4-1 6c0 0-1 0-2 0c-1-2-1-2-2-4c-26-44-82-68-128-83c-1 0-2 0-3-1c-39-12-79-18-120-17c0 0 0 0-2 0c-18 1-36 3-51 13c0 0-1 0-2 0c0 0 0-1-1-2c-2 0-2 0-5-1c0-3 1-5 3-7c17-17 48-17 70-17z"/><path fill="#e5b06d" d="m23.9 156.4c1 0 2 0 3 0c12 0 22 6 33 13c0 1 0 3 0 5c15 8 30 16 46 24c3 2 6 3 9 5c9 5 17 8 27 9c4 1 7 2 11 4c3 2 6 3 9 4c12 4 12 4 16 8c0 0 0 1 0 2c1 0 1 0 2 0c0 1 0 2 0 4c1 0 1 0 2 0c4 1 7 2 10 3c1 0 2 1 2 1c2 0 3 1 5 1c3 2 7 3 11 4c1 1 2 1 3 1c41 15 84 26 127 34c1 0 2 0 3 0c2 1 4 1 6 1c5 1 9 2 14 4c0-2-1-3-1-4c1-1 1-1 2-1c7 2 12 5 16 11c0 1 0 2 0 3c-2-1-4-1-6-1c0 1 0 2 0 4c-1-1-1-1-2-1c-9-4-18-6-28-8c-1 0-2 0-3-1c-5 0-10-1-15-2c-11-2-21-4-32-7c-1 0-2 0-3 0c-13-3-26-7-38-11c-4-1-7-2-11-3c-47-13-93-32-137-56c-6-3-12-6-18-9c-9-5-17-9-26-14c-7-4-15-8-23-11c-1-1-2-1-2-1c-8-3-15-3-23-2c0 0 0 1 0 2c-4-1-6-1-8-4c5-8 10-11 19-11z"/><path fill="#0d0304" d="m389 125c5 1 5 1 7 3c0 0 0 0-1 1c-8 11-13 23-19 35c0 1-1 1-1 2c-2 5-4 10-5 15c-1 2-2 5-3 8c-3 7-5 14-7 21c1 0 1 1 2 1c-1 0-2 0-3 0c0 1 0 2 0 3c-7 2-12 3-19 0c-3-2-5-5-6-9c-5-12-13-22-26-27c-4 0-4 0-7 0c0 0 0 0-1 2c-1 0-1 0-2 0c0 1 0 2 0 3c-1 5-2 9-3 14c-2 7-4 14-5 21c0 4-2 8-3 12c-3 8-4 17-4 26c0 1 0 2-1 2c0 1 0 2 0 3c0 2 0 2-1 3c-9 1-18-2-27-5c-1 0-1 0-3 0c-52-16-52-16-68-24c-1-3-1-5-1-8c4-1 5-1 9 1c1 0 2 1 3 1c1 0 1 0 4 1c2 1 5 2 7 3c1 0 2 0 3 1c5 1 10 3 14 4c4 1 8 3 12 4c4 2 8 3 12 4c2 1 5 2 7 3c6 2 11 4 17 4c3-6 5-10 5-17c-3-4-7-6-11-8c-1 0-2 0-2-1c-4-2-8-3-12-5c-1-1-2-1-3-1c-1-1-3-2-4-2c-2-1-4-2-6-3c0-1-1-2-1-3c2 0 3 1 5 1c1 0 2 0 3 0c4 1 8 3 12 4c2 1 3 1 5 2c4 1 9 3 13 4c0-1 0-1 0-2c1-6 1-10 4-15c1-3 2-6 2-9c1-3 1-3 2-6c-2-3-5-4-8-5c0-1-1-1-2-2c-17-8-35-15-54-21c0-1 0-1 0-2c5 0 8 1 13 2c0 0 0 0 2 1c2 1 4 2 6 2c1 1 2 2 4 2c15 6 30 12 43 20c3 2 3 2 6 3c0-1 0-1-2-8c1 0 2-1 3-1c1-2 1-3 2-5c1-3 3-4 5-6c8-1 13 2 19 6c9 7 19 18 21 29c1 2 1 2 3 4c3 1 3 1 5 1c1-1 3-1 4-2c1-2 2-5 2-7c1-1 1-3 2-4c0-1 0-2 0-3c8-25 19-49 33-71z"/><path fill="#0f0b10" d="m5 168c0 0 0 0 2 1c3 1 5 1 8 1c0 1-1 1-1 2c-3 4-3 8-2 13c8 27 31 44 54 56c20 11 40 19 61 26c1 0 3 1 4 1c12 4 23 7 35 10c1 1 2 1 3 1c55 14 114 25 171 25c1 0 1 0 4 0c20 0 20 0 27-5c1-1 1-2 2-3c1 0 2 1 3 1c-1 2-1 3-2 5c1 0 1 1 2 1c-12 11-31 9-46 8c-17-1-34-3-51-6c-3 0-6 0-9-1c-9-1-19-2-28-4c-1 0-1 0-3 0c-22-4-43-8-64-13c-1 0-2 0-3-1c-13-3-26-6-39-10c-3-1-5-2-7-3c-5-1-10-3-15-5c-3-1-6-2-9-3c-5-1-9-3-13-5c-2-1-4-2-6-3c-20-9-40-19-55-35c-2-2-3-3-4-4c-12-13-20-28-20-46c0-2 0-2 1-4z"/><path fill="#201d28" d="m31.5 168.9c9 3 17 7 26 11c1 1 2 2 4 2c8 5 16 9 24 14c15 8 29 15 44 22c2 1 5 2 8 4c34 16 71 31 108 41c1 0 2 1 3 1c11 3 23 7 35 9c-1 2-2 3-2 5c-5 0-10-1-14-2c-6-2-11-3-17-5c-10-2-20-6-31-9c-3-1-7-2-10-3c-3-1-5-2-7-3c-3-1-6-2-9-3c-7-3-15-6-22-9c-1 0-2-1-2-1c-17-7-34-14-50-23c-5-3-10-5-15-7c-3-1-5-2-7-4c-3-1-5-2-7-3c-2-1-3-1-4-2c-1 0-2-1-3-1c-1-1-3-2-5-3c-6-2-11-5-16-6c0-1 0-1 0-2c-1 0-2 0-3 0c-3-1-6-1-9-2c-6-3-12-3-18-3c0 1 0 1 0 2c-2 1-4 2-5 3c-3 4-3 6-2 10c0 3 0 3 1 4c0 0 1 0 2 0c1 2 2 4 3 6c1 1 1 2 2 3c1 1 1 1 2 2c-1 0-1 0-3 1c-10-9-20-23-22-36c0-7 0-7 2-10c0 0 0 0 2-1c-1-1-1-1-1-2c5-3 12-1 18 0z"/><path fill="#7c1629" d="m301 177c8-1 13 2 19 7c8 7 15 17 18 28c0 3 0 3 0 5c-1 0-1 0-2 0c0 0 0 0-1-2c-2-7-6-12-11-18c0-1-1-1-1-2c-3-2-4-3-7-3c-1 0-2 0-3 0c0 1 0 2 0 4c0 3 0 5-2 8c0 2 0 2-1 5c0 1 0 1 0 2c0 3 0 5 0 8c0 4-1 5-3 8c-1 4-1 4-1 7c-1 0-1 0-2 0c-1 4-2 7-2 11c-1 4-2 7-4 11c0 1-1 3-1 4c21-1 21-1 30-2c0 1 0 2 0 3c1 0 1-1 2-1c0 0 0 0 1-3c1 0 2-1 3-1c0 1 1 1 1 2c-2 3-4 4-7 6c-5 1-11 2-16 2c-1 0-2 0-3 0c-2 1-5 1-7 1c0 1-1 3-1 4c-8-2-17-4-25-6c0 0 0-1 0-1c1 0 1 0 6-1c0-1 0-1 0-2c2-34 2-34 8-40c0-1 1-3 1-4c0-1 0-2 0-3c0-1 1-2 1-3c1-11 4-21 7-31c1 0 1 0 2 0c0-1 1-2 1-3z"/><path fill="#a87044" d="m282 31c7 0 11 1 16 4c2 0 3 1 5 2c0 0 0 0 2 1c2 1 5 2 7 3c5 2 9 4 12 6c2 2 5 3 7 4c4 2 8 5 12 7c1 1 2 1 3 2c11 7 21 15 30 24c1 1 1 1 2 2c21 20 21 20 21 34c-3-1-4-1-7-3c0 2-1 4-1 6c-1 0-1 0-2 0c-1-2-1-2-3-4c-23-41-75-66-118-80c4-1 4-1 6 0c0-1 0-2 0-3c3-1 5-1 8 0c-1 0-1-1-2-1c1-1 1-3 2-4z"/><path fill="#2d0e0e" d="m75 33c2 0 4 0 6 0c1 6 1 12 1 19c0 0 0 0 0 2c0 2 0 4 0 6c0 3 0 6 0 9c0 15 0 31-3 47c0 2-1 4-1 6c0 1 0 1-1 3c0 4-1 7-1 11c0 1-1 2-1 3c0 1 0 1 0 2c1 0 1 0 3-1c4-1 7-1 11-1c-2 3-4 3-7 4c-4 2-7 3-10 5c0 1 0 2 0 3c1 0 1-1 2-1c16-6 33-6 50-6c0 1 0 2 0 3c0 0 0 0-2 0c-3 0-5 0-8 0c-1 0-2 1-3 1c-5 0-11 0-16 1c0 0 0 1 0 1c8 0 15 1 23 1c0 1 0 1 0 2c-3 1-4 1-7 0c-4 0-6 0-9 1c-1 2-1 5-2 7c0 0-1 0-1 0c0-3 0-5 0-8c-3 0-5 1-8 1c0 0-1 0-2 0c-5 1-9 1-13 5c-2 4-3 7-3 11c0 1 0 1-1 4c0 0 0 1 0 2c1 0 2 1 2 1c3 1 5 3 8 5c3 1 5 1 8 1c2 0 3 0 4 0c1 0 2 0 2 0c15 1 29 2 44 4c0 1 1 2 1 3c-2 0-3 0-5 0c0 0-1 0-2 0c-3 0-3 0-6 0c-3-1-7-1-10-1c0 0 0 0-2 0c-2 0-4-1-6-1c-2 0-3 0-5 0c-3 0-7 0-10 0c2 2 4 4 7 5c1 1 2 1 2 2c3 1 6 2 8 3c4 2 7 3 10 5c1 0 2 1 2 1c2 1 3 1 4 2c2 1 4 2 6 3c0 1 0 1 0 2c-6 0-10-2-16-5c0 0-1-1-2-1c-3-2-5-3-8-4c-2-1-4-2-6-3c-25-13-25-13-37-20c0 0 0 0-2-1c-2-1-2-1-4-3c-1-6 1-11 3-16c1-3 2-6 3-10c0-2 0-2 1-5c2-6 2-11 3-17c1-1 1-2 1-4c4-22 5-44 5-67c0-2 0-4 0-6c0-6 0-11 0-16z"/><path fill="#e5c78d" d="m112 137.9c27-1 54 3 81 9c1 0 2 0 3 1c28 6 75 17 96 38c0 2 0 4 0 6c-4 0-7-2-11-4c-6-4-12-7-19-10c-1 0-2-1-3-1c-36-16-36-16-50-16c-6 0-11-2-17-3c-16-5-32-8-49-10c-1 0-3 0-4 0c-1 0-1 0-3 0c-3-1-3-1-5-3c-4 0-9 0-13 0c-1 0-1 0-4 0c-15 0-29 2-43 7c0-4 0-4 3-6c12-6 25-7 38-8z"/><path fill="#b97b46" d="m203 242c1 0 2 1 3 1c44 15 88 26 134 35c1 0 2 0 3 1c2 0 4 0 6 1c5 0 9 2 14 3c0-1-1-3-1-4c1 0 1-1 2-1c6 2 12 6 16 11c0 1 0 2 0 3c-1 0-1 0-6-1c0 1 0 3 0 4c-1 0-1-1-2-1c-9-4-18-6-28-8c-1 0-2 0-3 0c-5-1-10-2-15-3c-11-2-21-4-32-6c-1 0-2-1-3-1c-13-3-26-6-38-10c-4-1-7-2-11-3c-15-4-30-9-45-15c1 0 1-1 2-1c0-1 0-2 0-3c1 0 3 0 4 0c0-1 0-1 0-2z"/><path fill="#570d1d" d="m359 211c3 0 6-1 9 1c4 4 6 7 8 12c0 1 0 3 0 4c-2 0-4-1-6-1c0 1 0 1 0 2c-1 6-2 12-3 17c-1 4-2 7-2 10c-1 7-3 14-6 21c-5 0-5 0-7-3c-3-3-3-3-3-5c1-3 3-5 4-8c2-3 2-6 3-10c0-2 0-2 1-3c0-1 0-3 0-4c0-1 0-2 0-3c0 0 0 0 0-2c0-1 0-2 0-3c0-4 0-8-1-12c-1 0-1 0-2 0c0 1 1 2 1 3c1 12 1 27-6 37c-1 1-1 1-2 2c-1 0-1-1-2-1c1-1 1-2 2-3c2-5 3-10 3-15c-3 0-5 1-8 1c0-11-1-22-1-33c3 0 7 0 10 0c1 0 1-1 2-1c2 0 4 0 6 0c0-1 0-2 0-3z"/><path fill="#120304" d="m338 218c1 0 2 1 3 1c1 34 1 34-7 47c9 3 9 3 12 1c7-11 8-20 8-32c0-1 0-2 0-3c0-3 0-5 0-8c1 0 1 0 2 0c2 5 2 9 2 14c0 1 0 1 0 3c0 5 0 9-2 14c0 1 0 1-1 2c-1 3-2 6-4 9c-1 2-1 2-1 4c1 3 4 5 6 7c1 0 1 0 2 0c4-9 6-17 7-26c1-5 2-9 3-14c0-2 1-4 1-5c0-1 0-2 1-3c0 0 0 0 0-2c2 0 3 1 5 1c0 6-1 11-2 17c-1 3-1 6-2 9c-1 9-3 17-7 25c-1 2-1 2-1 4c-6-1-13-2-19-3c-1 0-2-1-3-1c-3 0-5-1-8-1c-3-1-7-2-11-2c-2-1-4-1-7-2c-1 0-2 0-3 0c-1-1-2-1-3-1c-1 0-2 0-3-1c-2 0-2 0-5-1c-1-2-1-2-1-4c2-2 3-1 5-1c23-2 23-2 27-6c2-4 2-7 3-11c0 0 0 0 1-3c1-9 2-19 2-28z"/><path fill="#0f0b12" d="m5 168c0 0 0 0 2 1c3 1 5 1 8 1c0 1-1 1-1 2c-3 4-3 8-2 13c8 27 31 44 54 56c5 3 10 6 16 8c0 1 1 1 2 1c4 3 8 4 13 6c0 1 0 1 0 2c20 9 41 15 63 21c3 1 7 2 10 3c0 1 0 2 0 3c-9-1-18-3-26-6c-2-1-5-1-7-2c0 0 0 0-3-1c-3-1-6-2-8-3c-4-1-8-2-11-3c-5-2-9-4-13-5c-5-1-9-3-13-5c-2-1-4-2-6-3c-20-9-40-19-55-35c-2-2-3-3-4-4c-12-13-20-28-20-46c0-2 0-2 1-4z"/><path fill="#211f2d" d="m116 20c-3 3-5 3-9 4c-6 1-10 2-15 5c-2 3-2 4-2 7c0 1 0 2 0 3c0 1 0 2 0 3c0 1 0 2 0 3c0 3 0 6 0 9c0 31 0 31-2 40c0 2 0 4 1 6c0 0 0 0-1 2c0 3-1 5-1 8c0 0 0 1 0 2c-1 2-1 3-1 5c-1 0-1 0-2 0c-1 7-1 14-2 21c2 0 5-1 7-1c10-1 19-1 29-1c2 0 3 0 5 0c4 0 8 0 12 0c0 1 0 1 0 2c0 0 0 0-2 0c-15 1-30 1-45 3c0 0 0-1 0-1c-4 0-9 0-13 1c0-10 2-19 4-28c3-18 2-37 2-55c0-3 0-5 0-7c0-6 0-12 0-18c-2 0-5 0-7 0c0-2 1-3 1-5c2 0 3 0 5 0c0 1 1 2 1 3c1 0 1-1 2-1c10-6 21-11 33-10z"/><path fill="#2f0314" d="m218 162c5 0 8 1 13 2c0 1 1 1 2 1c2 1 4 2 6 2c1 1 2 2 4 2c17 7 33 14 48 23c0 3-1 6-1 8c0 1 0 1-1 3c0 3-1 7-3 10c-1 3-1 6-1 9c-1 2-2 5-2 8c-2 5-3 11-4 17c0 1-1 2-1 3c0 2-1 5-1 7c-3 1-4 1-8 0c0-1 0-1-2-1c-1-1-1-1-2-1c1-1 1-1 2-2c1 0 2 0 3 0c3-6 5-10 5-17c-3-4-7-6-11-8c-1 0-2 0-2-1c-4-2-8-3-12-5c-1-1-2-1-3-1c-1-1-3-2-4-2c-2-1-4-2-6-3c0-1-1-2-1-3c2 0 3 1 5 1c1 0 2 0 3 0c4 1 8 3 12 4c2 1 3 1 5 2c2 0 2 0 13 4c0-1 0-1 0-2c1-6 1-10 4-15c1-3 2-6 2-9c1-3 1-3 2-6c-2-3-5-4-8-6c0 0-1 0-2-1c-17-8-35-15-54-21c0-1 0-1 0-2z"/><path fill="#262433" d="m383 117c1 0 3 0 4 0c1 2 1 4 2 6c1 0 1 0 2 0c0-2 1-4 1-6c3 1 5 3 7 5c-1 2-2 3-3 5c-2-1-5-1-7-2c0 1-1 1-1 2c-1 3-2 5-4 7c-12 20-22 44-28 67c-3 9-3 9-7 12c-2 0-2 0-4-1c1-8 2-15 5-22c0-1 1-2 1-2c4-12 8-24 14-35c0-1 0-1 2-4c3-6 7-13 10-19c3-4 5-8 6-13z"/><path fill="#cd995d" d="m231 13c7 2 15 4 22 6c3 1 6 2 9 3c5 1 10 2 15 4c0 0 0 0 2 1c5 2 5 2 6 4c0 0 0 0-2 1c-2 1-2 1-3 3c2 1 4 1 6 2c-4 1-6 0-10-1c-1 0-1 0-2 0c0 1 0 2 0 3c-7-1-13-2-20-4c-10-4-21-6-32-9c1 0 3-1 4-1c0-1 1-3 1-4c1 0 3 1 4 1c0-1 0-1 0-2c-3 0-6 0-9 0c0-1 0-1 0-2c-1 0-2 0-2 0c-3-1-3-1-5-3c5-3 10-3 16-2z"/><path fill="#9a2336" d="m301 177c7-1 11 1 16 5c10 8 18 18 21 30c0 3 0 3 0 5c-1 0-1 0-2 0c0 0 0 0-1-2c-2-7-6-12-11-18c0-1-1-1-1-2c-3-2-4-3-7-3c-1 0-2 0-3 0c0 1 0 3 0 4c0 4 0 4-1 6c-2 1-2 1-4 1c0 3 0 5 0 8c-1 0-1 0-2 0c0 1 0 2 0 3c-1 3-1 3-2 5c-1 3-1 5-1 8c0 5-1 9-3 14c-1 3-1 5-2 8c-1 3-1 4-4 7c0 0-1 1-2 1c-1 0-1-1-2-1c0-1 0-1 0-3c1-2 1-5 1-7c0-1 1-3 1-4c0-1 0-2 0-3c1-3 2-6 3-10c3-7 5-14 6-21c0-3 0-5 1-8c0-1 0-2 0-3c1-5 2-10 3-15c-2 0-3 0-5 0c0-1-1-1-1-2c1-1 1-2 2-3z"/><path fill="#0c0205" d="m75 33c2 0 4 0 6 0c1 6 1 12 1 19c0 1 0 1 0 2c0 2 0 4 0 6c0 3 0 6 0 9c0 15 0 31-3 47c0 2-1 4-1 6c0 1 0 2-1 3c0 4-1 7-1 11c0 1-1 2-1 3c0 1 0 1 0 2c1 0 2-1 3-1c4-1 7-1 11-1c-2 3-6 4-9 5c-5 2-8 1-13 0c0-7 2-14 3-21c4-23 5-45 5-68c0-2 0-4 0-6c0-6 0-11 0-16z"/><path fill="#c48751" d="m131 144c22 1 44 5 65 10c7 2 14 4 21 5c0-2 0-3 0-5c25 7 49 17 72 30c0 0 1 0 2 1c1 1 1 1 2 4c-1 1-1 2-1 3c-4-1-7-2-11-4c-6-4-12-7-19-10c-1 0-2-1-3-1c-36-16-36-16-50-16c-5 0-11-2-17-3c-16-5-32-8-49-10c-1 0-3 0-4 0c0 0 0 0-3 0c-3-1-3-1-5-4z"/><path fill="#b06d3b" d="m23.9 156.4c1 0 2 0 3 0c12 0 22 6 33 13c0 1 0 3 0 5c1 0 2 0 2 1c9 4 9 4 10 7c0 2 0 2 0 5c-1 0-1 0-2 1c-3-2-3-2-6-3c-1-1-3-2-4-2c-2-1-4-3-6-4c-11-6-21-11-34-11c-2 0-3 0-4 0c-1 1-2 1-3 1c0 0 0 1 0 2c-4-1-6-1-8-4c5-8 10-11 19-11z"/><path fill="#a97043" d="m122 5c0 1 0 1 0 2c1 0 2 0 3 0c0 1 0 1 0 2c4 0 7 0 11 0c0 1 0 1 0 2c-4 0-7 0-11 0c0 1 0 1 0 2c2 0 3 0 5 0c0 0 0 0 1 2c0 1-1 1-1 2c2 0 4 0 6 0c0 0 0 1 0 1c-1 0-2 0-3 0c-18 1-35 3-50 13c-1 0-1 0-2 0c0-1-1-1-1-2c-3-1-3-1-5-1c0-3 0-5 2-8c11-10 31-15 45-15z"/><path fill="#7b182b" d="m140 187c1 0 1 0 2 0c0 2-1 3-1 5c-2 0-5 0-7 0c0 1 0 1 0 2c0 0 0 0 3 0c0 0 0 0 3 0c1 0 2 1 3 1c3 0 3 0 5 2c0 0 1 0 1 0c0 3 0 5-2 8c0 0-1 1-2 2c-1 1-1 1-2 2c-4 4-7 3-12 3c1 0 2-1 3-1c0-1 0-1 0-2c-1 0-2 0-2-1c-5-1-8-3-12-5c-9-5-9-5-13-7c-3-1-5-2-8-4c-1 0-1-1-2-1c-1 0-1-1-2-1c0-1 0-1 0-2c33 0 33 0 46 2c0 0 0 0-1-3z"/><path fill="#1b1a25" d="m337 287c2 1 4 1 6 2c2 0 5 0 7 0c0-1 0-1 0-2c9 2 16 4 24 8c0-1 0-3 0-4c2 0 5 1 7 1c-1 6-1 6-2 9c-2 1-2 1-5 1c0-2 1-3 1-5c-1 0-1 0-2 0c-1 1-1 2-2 2c-4 4-6 4-11 5c-1 0-2 0-3 1c-3 0-6 0-9 0c-1 0-1 0-4 0c-1 0-2 0-3 0c-2 0-3 0-4 0c-21 0-21 0-30-2c0-1 0-1 0-2c0 0 0 0 3 0c3 0 6 0 9 0c2 0 3 0 5 0c2 0 4-1 6-1c0 0 0 0 4 0c3 0 6-1 9-2c0 0 0 0-1-3c-4-2-4-2-7-3c0-1 0-1 0-2c1 0 1 0 2 0c0-1 0-2 0-3z"/><path fill="#9e6339" d="m303 271c6 1 11 2 17 3c2 1 4 1 6 1c12 3 25 5 37 8c0-1 0-1-1-4c1 0 1-1 2-1c6 2 12 6 16 11c0 1 0 2 0 3c-2 0-4-1-6-1c0 1 0 3 0 4c0 0 0 0-2-1c-9-4-18-6-28-8c-1 0-3 0-4 0c-5-1-10-2-15-3c-10-2-20-4-30-6c0 0 0-1 0-1c2 0 4 0 6 0c0-1 0-1 0-2c1 0 1-1 2-1c0-1 0-1 0-2z"/><path fill="#221d23" d="m178 242c10 2 20 5 30 9c12 4 24 8 37 12c1 0 2 1 3 1c23 7 23 7 35 9c-1 2-1 3-2 5c-5 0-9-1-14-2c-5-2-11-3-17-5c-10-2-20-6-30-9c-4-1-7-2-11-3c-2-1-5-2-7-3c-3-1-6-2-9-4c-1 0-1 0-4-1c-2 0-3-1-5-2c-2-1-2-1-5-2c-1-3-1-3-1-5z"/><path fill="#170807" d="m68 152c1 0 2 1 3 1c0 1-1 1-1 2c-1 2-2 5-3 8c0 1 0 1 0 3c-1 1-1 2-1 3c0 1-1 3-1 4c1 0 1 0 2 1c1 0 2 0 2 1c1 0 2 0 3 1c3 1 3 1 5 2c6 6 12 6 20 6c4 0 7 0 11 0c0 0 1 0 2 0c10 0 20 1 30 3c0 1 1 2 1 3c-2 0-3 0-5 0c0 0-1 0-2 0c-3 0-3 0-6 0c-3-1-7-1-10-1c-1 0-1 0-2 0c-2 0-4-1-6-1c-2 0-3 0-5 0c-3 0-7 0-10 0c2 2 4 4 7 6c1 0 2 0 2 1c3 1 6 2 8 3c4 2 7 3 10 5c1 0 2 1 2 1c2 1 3 1 4 2c2 1 4 2 6 3c0 1 0 1 0 2c-6 0-10-2-16-5c0 0 0 0-2-1c-3-2-5-3-8-4c-2-1-4-2-6-3c-35-18-35-18-43-24c0-1 0-1 0-2c1 0 1 0 2 0c2-6 4-11 5-17c1-2 1-2 2-3z"/><path fill="#06070f" d="m185 249c3 1 7 2 10 3c1 1 2 1 3 1c5 2 11 4 16 6c8 3 17 6 25 8c1 0 2 1 3 1c4 1 9 2 14 3c4 1 8 3 12 4c7 2 14 4 20 5c1 0 2 1 2 1c4 1 7 1 10 2c3 0 3 0 4 1c1 0 3 1 4 1c5 1 10 2 16 3c0 0 1 0 2 1c2 0 4 1 6 1c0 1 1 3 1 4c-2 0-4-1-5-1c-1 0-2 0-3 0c-3-1-6-2-9-2c-6-2-13-3-19-5c-2 0-5 0-7-1c-1 0-2 0-3 0c-2-1-2-1-3-2c-3-1-6-1-9-1c-3-1-7-2-10-3c-2-1-5-1-7-2c-8-2-17-5-25-7c-1-1-2-1-2-1c-10-3-19-6-28-9c0 0-1 0-2-1c-2 0-4-1-6-2c-1 0-2-1-2-1c-1 0-2-1-3-1c-1 0-1-1-2-1c-2-1-2-1-3-3c0 0 0 0 0-2z"/><path fill="#9d6136" d="m314 52c5 1 9 3 13 5c1 1 2 1 2 1c6 4 12 7 17 11c1 1 2 1 3 2c26 19 26 19 30 27c0 2 0 2-1 4c-1 0-1 1-2 1c-4-3-7-6-10-9c-15-15-34-26-52-36c-2-1-3-2-5-3c1 0 3 0 4 0c0-1 1-2 1-3z"/><path fill="#151017" d="m389 125c5 1 5 1 7 3c0 0-1 1-1 1c-8 11-13 23-19 35c0 1-1 1-1 2c-2 5-4 10-5 15c-1 2-2 5-3 8c-3 7-5 14-7 21c1 0 1 1 2 1c-1 0-2 0-3 0c0 1 0 2 0 3c-1 0-1-1-2-1c-1-7 1-13 3-20c3-8 3-8 1-11c1-2 1-2 2-6c0 0 0 0 2-3c0-1 1-3 1-4c1-1 1-1 1-2c6-14 14-29 22-42z"/><path fill="#140002" d="m338 218c1 0 2 1 3 1c1 34 1 34-7 47c1 0 2 1 2 1c3 1 3 1 5 3c0 1 0 3 0 4c-14 3-26 0-40-3c-1-2-1-2-1-4c2-2 3-1 5-1c23-2 23-2 27-6c2-4 2-7 3-11c0 0 0 0 1-3c1-9 2-19 2-28z"/><path fill="#8d1d31" d="m183 196c1 0 1 1 2 1c0 1-1 1-1 2c1 0 3 1 4 1c1 0 3 1 5 1c1 0 1 0 2 0c1 1 2 1 3 1c0 0 1 0 2 0c3 1 5 2 7 5c0 1 1 1 1 2c-6-1-11-1-17-3c-2 0-2 0-5 0c0 0 0 0-1-2c-4 0-6 0-9 2c-3 3-4 5-4 9c0 0 0 1 0 2c2 0 3 0 5 0c0 1 0 2 0 3c0 0 0 0 2 0c3 1 6 2 10 3c1 1 2 1 3 2c3 1 5 2 8 4c0 0 0 1 0 1c-6-1-11-1-17-3c0 2 0 5 0 7c-1 0-2 0-3 0c0-1 0-3 0-4c-1 0-1 0-2 0c0 0 0 0-2-2c-2-2-4-3-8-5c-1 0-2 0-3-1c-3-1-7-2-10-3c-3-1-5-3-8-4c-3-1-6-2-9-3c3-2 5-2 9-2c0 1 1 2 1 3c3 1 3 1 6 2c1 0 3 1 4 1c4 2 8 3 12 4c0 0 0 0-1-2c0-5-1-10 1-15c-1 0-1-1-2-1c1-3 1-3 4-5c2 0 5 0 7 1c1 0 1 0 2 0c1-1 1-1 2-2z"/><path fill="#620e21" d="m298 180c2 1 3 1 5 2c-2 12-2 12-4 17c-1 5-1 11-2 16c0 4 0 6-2 9c0 2-1 3-1 5c-1 0-1 0-2 0c-2 19-2 19-3 28c0 0 0 0-3 1c0 1 0 1 0 2c-1 0-1 0-2 0c0 1 0 3 0 4c-3 1-6 1-9 1c0 0 0-1 0-1c1 0 1 0 6-1c0-1 0-1 0-2c2-34 2-34 8-40c0-1 1-3 1-4c0-1 0-2 0-3c0-1 1-2 1-3c1-11 4-21 7-31z"/><path fill="#be9464" d="m135.8 3.9c0 0 0 0 2 0c2 0 5 0 7 0c2 0 3 0 5 0c4 0 7 0 11 0c0 1 1 1 1 2c1 2 1 2 3 3c0 1 0 1 0 2c0 0-1 0-2 0c0 1 0 2 0 3c3 0 6 0 9 0c-1 1-2 1-3 2c1 1 2 1 3 2c-14 0-28-1-42-1c0-1 0-2 0-3c-1 0-3-1-5-1c0-1 0-1 0-2c4 0 7 0 11 0c0-1 0-1 0-2c-3 0-7 0-11 0c0-1 0-1 0-2c-1 0-2 0-3 0c0-1 0-1 0-2c5-1 9-1 14-1z"/><path fill="#420619" d="m327.1 219.9c1 0 2 1 3 1c0 1 0 2 0 3c1 0 1 0 2 0c1 4 2 7 3 11c1 0 2-1 3-1c-1 5-1 10-2 15c0-1-1-3-1-4c-1 0-1 0-3 2c-4 1-8 1-12 0c-4-3-5-7-5-12c-1-6 0-9 4-13c1 0 2 0 3 0c0-1 0-1 0-2c2-1 2-1 5 0z"/><path fill="#090306" d="m96 257c5 1 9 2 13 4c3 1 6 2 9 3c1 0 2 1 2 1c53 19 110 27 165 35c0 1 0 1 0 2c-10 1-20-1-30-3c-3 0-6-1-8-1c-2-1-4-1-6-1c-1 0-2-1-3-1c-4-1-9-1-14-3c-4 0-7-1-11-1c-10-2-20-4-29-6c-3-1-5-1-7-2c-21-4-42-10-63-18c0 0-1 0-2-1c-11-4-11-4-16-7c0 0 0-1 0-1z"/><path fill="#17171e" d="m182 227c1 0 1 0 2 0c0 1 0 2 0 3c1 0 1 0 2 0c22 6 44 14 65 22c2 1 3 1 5 2c1 0 2 1 3 1c0 1 0 1 0 2c-1 0-3 0-4 0c0 1 0 1 0 2c-10-2-20-5-29-9c-1 0-1 0-3 0c-10-4-20-7-30-11c-1 0-2-1-3-1c-1-1-2-1-3-1c-1-1-1-1-2-1c-2-1-2-1-3-3c0-2 0-4 0-6z"/><path fill="#621427" d="m359 211c3 0 6-1 9 1c4 4 6 7 8 12c0 1 0 3 0 4c-2 0-4-1-6-1c0 1 0 1 0 2c-1 6-2 12-3 17c-1 4-2 7-2 10c-1 7-3 14-6 21c-4 0-4 0-6-1c0-1-1-1-1-2c-1 0-1-1-2-1c-1-2-1-2-1-5c3 1 5 3 8 4c2-7 4-15 4-22c1-4 1-4 2-7c1-5 1-9 1-13c0-1 0-1 0-2c0-2 0-4 0-6c-1 0-1 0-2 0c-1-1-2-1-3-1c-1 0-2 0-3 0c-2-1-2-1-4-3c0-2 0-2 1-4c2 0 4 0 6 0c0-1 0-2 0-3z"/><path fill="#262329" d="m110 209c5 1 9 3 13 6c1 0 3 1 4 2c1 0 2 0 3 1c19 10 39 18 59 26c-4 1-6 0-10-1c0 1 1 2 1 3c-5-1-10-2-14-4c-1-1-2-1-3-1c-17-8-33-15-49-24c-1-1-3-1-4-2c1-1 1-3 2-4c-1 0-1 0-2 0c0-1 0-1 0-2z"/><path fill="#671022" d="m319 192c0 2 0 3 1 5c0 0 0 0 0 3c0 0 0 1 0 2c-1 1-1 1-2 2c0 2 0 2 0 5c-1 5-1 7-4 11c0 1 0 1 0 2c-1 2-1 2-4 4c-2 2-2 2-2 4c0 2 0 4 1 6c0 2-1 4-2 6c0 2-1 4-1 6c1 0 1 0 2 0c0 1 0 3 1 4c0 1 0 2 0 3c0 1 0 1 0 2c-1 1-1 1-4 1c0 0-1 0-2 0c0 1 0 1 0 2c-2 0-4 0-6 0c1-8 1-8 3-11c0-2 1-4 1-5c1-4 1-7 3-10c1 0 1 0 2 0c0-1 0-2 0-3c0-4 0-4 2-6c2-3 1-5 1-8c0-5 0-9 2-14c1-3 1-6 1-9c1 0 1-1 1-2c2-1 3-1 6 0z"/><path fill="#440817" d="m343 215c3 0 6 0 9 0c1 1 1 3 2 4c2 1 2 1 5 1c5 1 5 1 6 2c1 9 0 17-2 25c-1 3-1 6-1 8c-1 6-3 12-5 17c-3-1-5-1-7-4c0-1 1-1 1-2c1-2 2-5 2-7c1 0 1-1 1-2c2-6 3-12 3-19c0 0 0-1 0-2c0-4 0-8-1-12c-1 0-2 1-3 1c0-1-1-3-1-4c-1 0-1 0-2 0c-3 0-3 0-5-3c-1-1-1-2-2-3z"/><path fill="#bb8757" d="m377 86c9 7 21 18 22 30c0 1 0 3 0 4c-3-1-4-1-7-3c0 2-1 4-1 6c-1 0-1 0-2 0c-1-2-1-2-3-4c-2-5-5-9-9-13c-1-2-1-2-1-4c1 0 1 0 2 0c0-5-1-7-5-10c-1-1-2-2-3-3c4 0 5 2 8 4c0-2-1-5-1-7z"/><path fill="#18161c" d="m280 274c8 0 16 2 24 4c14 3 28 6 42 8c2 0 2 0 4 1c0 1 0 1 0 2c-7 1-7 1-11 0c-1-1-1-1-2-2c0 1 0 2 0 3c-1 0-1 0-2 0c0 1-1 1-1 2c-1 0-2-1-4-1c-7-3-15-5-23-6c-3 0-3 0-4-1c-2-1-5-1-7-1c-6-2-11-3-17-4c1-1 2-3 3-4c-1 0-1-1-2-1z"/><path fill="#a67349" d="m23.9 156.4c1 0 2 0 3 0c12 0 22 6 33 13c0 1-1 3-1 5c-5-2-10-4-14-6c-9-4-17-7-27-4c-3 1-3 1-5 3c0 1 0 2 0 4c-4-1-6-1-8-4c5-8 10-11 19-11z"/><path fill="#cd9151" d="m203 242c5 2 10 3 15 5c2 1 4 1 6 2c2 1 5 1 7 2c1 0 2 1 3 1c4 1 8 3 12 4c0 1 0 1 0 2c-1 1-1 1-2 2c0 0 0 1 0 1c-9 1-17-2-26-5c-1-1-3-1-4-2c-12-4-12-4-17-6c1 0 1-1 2-1c0-1 0-2 0-3c1 0 3 0 4 0c0-1 0-1 0-2z"/><path fill="#bd8651" d="m282 31c7 0 11 1 16 4c2 0 3 1 5 2c1 0 1 1 2 1c3 1 5 2 8 3c3 2 6 3 9 6c-1 0-1 0-6 1c0 1 0 2 0 3c-4 0-6-1-10-3c-4-3-8-5-13-6c-2-1-2-1-4-2c-1 0-3 0-4 0c-4 0-4 0-6-1c0-1-1-1-1-2c0 1 1 3 1 4c-4-1-7-1-11-2c4-1 4-1 6 0c0-1 0-2 0-3c3-1 5-1 8 0c-1 0-1-1-2-1c1-1 1-3 2-4z"/><path fill="#c98d51" d="m70 181c5 2 9 4 14 6c0 0 0 0 2 1c2 1 4 2 5 3c3 1 5 2 7 3c2 1 4 2 5 3c1 0 2 1 2 1c4 2 7 4 10 6c-1 4-1 4-4 5c-3 0-5-1-8-3c-1 0-2-1-3-2c-2 0-3-1-4-2c-1 0-3-1-4-1c-20-11-20-11-23-16c1 0 1-1 2-1c0-1-1-2-1-3z"/><path fill="#bb7d44" d="m278 37c1 0 2 1 3 1c0 1 0 1 0 2c1 0 1-1 2-1c5-1 8 1 13 3c2 1 4 2 6 3c4 1 7 3 11 5c1 0 2 1 3 1c0-1 0-2 0-3c3-1 5-1 8-1c3 1 5 3 8 4c0 1 0 1 0 2c-1 0-3 1-4 1c0 1 0 1 1 4c-3-1-6-2-9-4c-3-1-3-1-6-1c0 1-1 1-1 2c-6 1-11-2-17-5c-7-3-14-6-22-9c1-1 3-1 4-2c0-1 0-1 0-2z"/><path fill="#9e2e3b" d="m124 144c3 0 3 0 7 0c1 1 1 1 2 2c3 0 3 0 6 1c1 0 3 0 4 0c1 0 1 0 2 1c17 1 33 5 50 9c9 3 17 4 26 4c0 0 0 1 0 1c-4 0-8 0-12 0c-2 0-3 0-4 0c-19 0-19 0-25-3c0-1 0-3 0-4c0 0 0 0-2 0c-4-1-8-1-12-2c-5 0-7 0-11 2c-1 2-1 2-2 4c0 0 0 0-2 1c0-2 0-3 0-5c-4-2-7-2-11-3c-3-1-6-1-9-2c0-1 0-1 0-2c-1 0-2-1-3-1c-3-1-3-1-4-3z"/><path fill="#3f0b15" d="m370 227c2 0 3 1 5 1c0 6-1 11-2 17c-1 3-1 6-2 9c-1 9-3 17-7 25c-1 2-1 2-1 4c-1 0-3-1-4-1c0-1 0-1 2-6c-1 0-1-1-2-1c0-1 1-1 1-2c2-7 4-14 5-22c1-5 2-9 3-14c0-2 1-4 1-5c0-1 0-2 1-3c0-1 0-1 0-2z"/><path fill="#140b11" d="m75 33c1 0 2 1 3 1c1 68 1 68-4 96c-1 2-1 3-1 4c0 1 0 2-1 3c0 1 0 2 0 3c-1 2-1 2-3 3c-1 1-1 1-2 1c0-7 2-14 3-21c4-23 5-45 5-68c0-2 0-4 0-6c0-6 0-11 0-16z"/><path fill="#44071c" d="m95 149c0 0 0 1 0 1c8 0 15 1 23 1c0 1 0 1 0 2c-3 1-4 1-7 0c-4 0-6 0-9 1c-1 2-1 5-2 7c0 0-1 0-1 0c0-3 0-5 0-8c-3 0-5 1-8 1c0 0-1 0-2 0c-5 1-9 1-13 5c-2 4-3 7-3 11c0 1 0 2-1 4c0 0 0 1 0 2c-3-1-5-1-8-3c3-15 3-15 7-19c3-1 6-2 9-3c1 0 2-1 3-1c9-2 9-2 12-1z"/><path fill="#d7a76b" d="m233.1 13.4c4 1 9 2 13 4c0 0 1 1 1 2c-1 0-1 0-2 0c-1 0-1 0-2 1c0 0-1 1-1 2c1-1 2-1 3-1c0 0 0 1 0 2c2 0 5 1 7 2c0 0 0 1 0 2c-4-1-9-2-13-2c0 0-1 1-1 2c-2 0-4 0-6 0c0 0 0 0-3 0c-3 0-5-1-7-2c1 0 3 0 4 0c0-2 1-3 1-4c1 0 3 0 4 1c0-1 0-2 0-2c-3 0-6 0-9 0c0-1 0-2 0-2c-1 0-2-1-2-1c-3 0-3 0-5-2c5-4 12-3 18-2z"/><path fill="#480a19" d="m341 221c0 0 1 0 1 0c0 9 0 18 0 27c1 0 1 0 8-1c0 6 0 11-3 16c-1 2-1 2-1 5c-5 2-8 0-12-2c1-3 1-5 2-8c5-12 5-24 5-37z"/><path fill="#600f21" d="m95 188c33 0 33 0 45 2c0 0 0 1 0 1c-1 0-2 0-3 0c-9 0-9 0-12 2c-1 2-2 3-3 5c-3 0-3 0-5 0c0 1 1 2 1 3c-5-2-10-4-14-6c-1 0-2-1-3-1c-1-1-3-2-5-3c0-1-1-2-1-3z"/><path fill="#201715" d="m210 150c6 0 11 1 16 4c3 1 6 2 9 2c3 1 7 3 10 4c1 0 1 0 2 1c5 2 10 4 15 6c2 1 5 2 7 3c0 1 0 1 0 2c1 0 1 0 2 0c4 1 7 3 10 5c1 0 2 0 2 1c2 0 3 1 5 2c0 1 0 1 0 2c5-2 5-2 7-3c-1 2-1 2-2 5c-2 1-2 1-4 1c-2-1-2-1-5-3c-1 0-2-1-3-1c-2-1-3-2-4-2c-21-12-44-20-67-27c0-1 0-1 0-2z"/><path fill="#915131" d="m301 177c8-1 13 2 19 7c8 7 15 17 18 28c0 3 0 3 0 5c-1 0-1 0-2 0c0 0 0 0-1-2c-2-7-6-12-11-18c0 0 0 0-2-2c-7-7-14-11-23-14c1-1 1-3 2-4z"/><path fill="#b47442" d="m258 169c8 3 15 6 22 10c1 0 1 0 3 2c8 4 8 4 9 5c0 2 0 4 0 6c-4-1-6-2-10-4c-10-6-21-10-32-15c4-1 4-1 6 0c0-1 0-1 0-2c1 0 1 0 2 0c0-1 0-1 0-2z"/><path fill="#9b633d" d="m131 138c0 0 0 1 0 1c-1 0-1 0-3 0c-2 0-3 0-4 0c-1 0-2 0-3 0c-1 1-3 1-5 1c0 1-1 1-1 2c-1 0-1 0-2 0c0 1 0 1 0 2c-1 0-1 0-2 0c-27 3-27 3-40 8c0-5 0-5 3-6c17-9 38-8 57-8z"/><path fill="#ecc07f" d="m114 204c4 1 7 2 11 4c1 0 2 1 3 2c2 0 3 1 4 1c1 1 2 2 4 2c2 1 4 2 6 4c2 1 5 2 7 3c0 1-1 1-1 2c-1 0-2 0-3 0c0 1 0 1 0 2c-6 0-11-3-16-5c-1-1-2-1-3-1c-5-3-10-6-15-9c1-2 2-3 3-5z"/><path fill="#b26651" d="m131 144c25 1 48 6 72 12c2 0 3 1 5 1c3 1 7 2 10 3c0 0 0 1 0 1c-9 1-17-1-26-3c-16-5-32-8-49-10c-1 0-3 0-4 0c0 0 0 0-3 0c-3-1-3-1-5-4z"/><path fill="#d2ae75" d="m161 4c3 0 6 0 9 0c1 0 1 0 3 0c1 1 2 1 3 1c0 0 1 0 2 0c2 0 2 0 5 2c-1 0-2 0-3 0c0 1 1 3 1 4c2 0 4 0 6 0c0 1 0 1 0 2c-3 0-6-1-9-1c0 1 1 1 1 2c3 1 3 1 5 1c0 1-1 3-1 4c-7 0-13-1-20-3c0-2 0-3 0-5c1 0 1 0 2 0c0-1 0-1 0-2c-1 0-2-1-3-1c-1-2-1-2-1-4z"/><path fill="#0f0504" d="m320 266c-1 1-1 1-2 2c7 0 7 0 9-1c3 0 4 1 7 2c1 1 1 1 2 2c1 0 1 1 2 1c0 1 0 2 0 3c-13 1-24-1-37-4c-1-2-1-2-1-4c2-2 6-1 8-2c1 0 2 0 2 0c4 0 7 0 10 1z"/><path fill="#701528" d="m216 162c1 0 1 0 2 0c0 1 0 1 0 2c1 0 2 0 3 1c11 2 22 6 32 11c-1 1-1 3-2 4c-1 0-1 0-2-1c-19-6-19-6-28-8c-2-1-2-1-5-3c-2 0-4-1-5-1c-4-1-8-2-12-3c0 0 0-1 0-1c6 0 11 0 17 2c0-1 0-2 0-3z"/><path fill="#b27f4e" d="m122 5c0 1 0 1 0 2c1 0 2 0 3 0c0 1 0 1 0 2c4 0 7 0 11 0c0 1 0 1 0 2c-4 0-7 0-11 0c0 1 0 1 0 2c2 0 3 0 5 0c0 1 1 1 1 2c0 1-1 1-1 2c2 0 4 0 6 0c0 0 0 1 0 1c-5 0-11 0-16 0c0-1-1-2-1-3c-7 1-13 1-20 2c0-1 1-1 1-2c3-1 5-1 8-2c0 0 0 0 2-1c1 0 3-1 5-1c-4-1-7-1-11-1c0-1 1-1 1-2c2-1 5-1 7-2c1 0 2 0 4 0c3-1 3-1 6-1z"/><path fill="#ba6a58" d="m133 212c6 0 10 0 15 3c3 2 7 3 10 4c7 2 15 4 20 9c0 1 0 1 0 2c1 0 1 0 2 0c0 1 0 2 0 3c-7-2-13-4-19-7c-4-2-8-4-12-6c-6-2-11-4-16-7c0 0 0-1 0-1z"/><path fill="#76172a" d="m195 196c1 1 2 1 3 2c0 0 0 0 3 1c3 1 3 1 5 3c3 4 4 4 8 4c5 2 10 4 14 6c1 0 1 1 2 1c1 1 3 1 4 2c0 1 0 2 0 3c-6-1-12-3-18-5c-4-1-7-2-11-3c-1 0-1 0-2 0c0-1-1-1-1-2c2 0 3 0 5 0c0-1-1-2-1-3c-3-1-5-2-8-2c-1 0-3-1-4-1c-1 0-1 0-4-1c-1 0-2-1-3-1c0-1 0-1 0-2c3 0 5 1 8 1c0-1 0-2 0-3z"/><path fill="#6d1825" d="m341 215c3 1 4 2 6 5c1 0 2 0 2 0c3 1 3 1 5 4c1 3 1 6 1 10c0 2 0 3 0 4c0 1 0 2 0 3c-1 0-1 0-2 0c0-3-1-5-1-8c-1 0-3 0-4 0c-1 3-2 7-3 10c-1 0-1 0-2 0c0-1 0-2 0-3c0-8 0-15-2-23c0-1 0-1 0-2z"/><path fill="#e6a95a" d="m187 146c21 4 21 4 30 8c0 1 0 1 0 2c1 0 1 1 2 1c-1 1-1 2-2 3c-11-2-23-5-34-8c0 0 1-1 1-1c2-2 2-2 3-5z"/><path fill="#9b6f4b" d="m363 278c7 2 12 5 17 11c0 1 0 2 0 3c-1 0-1 0-6-1c0 1 0 3 0 4c0 0 0 0-2-1c-3-1-6-2-9-3c-1 0-2-1-3-1c-1 0-1-1-2-1c0-2-1-4-1-6c2 0 4 0 6 0c0 0 0 0-1-2c0-1 0-1 0-2c0 0 1-1 1-1z"/><path fill="#080205" d="m288 301c5 0 10 0 16 1c13 2 27 2 41 2c2 0 3 0 5 0c4 0 8 0 12 0c0 1 0 1 0 2c-7 2-13 2-20 2c-1 0-2 0-3 0c-17 0-34-2-51-5c0-1 0-1 0-2z"/><path fill="#350f0d" d="m218 162c5 0 8 1 13 2c0 1 1 1 2 1c2 1 4 2 6 2c1 1 2 2 4 2c17 7 33 14 48 23c0 3-1 5-1 8c0 0-1 0-1 0c0-2 0-4 0-6c-1 0-1 0-2-1c-3-1-6-3-9-4c-19-11-39-18-60-25c0-1 0-1 0-2z"/><path fill="#590b1f" d="m343 215c3 0 6 0 9 0c1 1 1 3 2 4c2 1 2 1 5 1c5 1 5 1 6 2c0 3 0 5 0 8c0 1 0 2 0 2c0 5 0 9-2 14c-4-6-4-6-4-11c0-1 0-2 0-3c0-3 1-5 2-7c-3 0-5 0-8 0c0-1-1-3-1-4c-1 0-1 0-2 0c-3 0-3 0-5-3c-1-1-1-2-2-3z"/><path fill="#2b010b" d="m85 184c19 0 37 0 55 3c0 0 0 0 1 3c-2 0-3 0-5 0c0 0 0 0-2 0c-3 0-3 0-6 0c-3-1-7-1-10-1c-1 0-1 0-2 0c-2 0-4-1-6-1c-2 0-3 0-5 0c-3 0-7 0-10 0c0 1-1 1-1 2c-7-4-7-4-9-6z"/><path fill="#bb7f48" d="m379 99c5 4 7 7 10 12c0 1 0 1 0 2c1 0 1 0 2 0c0-1-1-2-1-3c3 1 5 1 8 2c0 3 1 5 1 8c-3-1-4-1-7-3c0 2-1 4-1 6c-1 0-1 0-2 0c-1-2-1-2-3-4c-2-5-5-9-9-13c-1-2-1-2-1-4c1 0 1 0 2 0c0-1 1-2 1-3z"/><path fill="#3f0416" d="m276 212c1 3 1 4 0 7c0 1 0 2 0 3c-1 4-2 4-5 6c-1 1-1 2-2 3c-1 0-2-1-3-2c-1 0-3-1-4-2c-1 0-1 0-2-1c-6-3-12-5-18-8c-2 0-3-1-5-2c0-1-1-2-1-3c2 0 3 1 5 1c0 0 0 0 3 0c4 1 8 3 12 4c2 1 3 1 5 2c2 0 2 0 13 4c0 0 0 0 0-2c0-1 0-2 0-3c1-1 1-2 1-3c0-3 0-3 1-4z"/><path fill="#06070f" d="m61 193c7 2 14 5 21 8c2 1 4 2 5 2c6 3 12 6 18 9c1 0 2 1 3 2c3 1 3 1 4 3c0 1-1 1-1 2c-8-2-14-6-21-9c-5-4-11-6-17-8c-2-1-5-2-8-4c-1 0-1-1-2-1c-1 0-1-1-2-1c0-1 0-2 0-3z"/><path fill="#672c23" d="m332 256c1 1 1 1 2 2c-2 3-4 4-7 6c-5 1-11 2-16 2c-1 0-1 0-3 0c-2 1-5 1-7 1c0 1-1 3-1 4c-2-7-2-7-2-9c3 0 6 0 9 0c0-1 0-1 0-2c7-1 13-1 20-2c0 1 0 2 0 3c1 0 1-1 2-1c0-1 1-2 1-3c1 0 1-1 2-1z"/><path fill="#0a0408" d="m24 210c4 3 7 6 10 9c8 8 18 14 28 20c1 1 2 1 3 2c9 5 17 9 26 13c0 1 0 1 0 2c-5-1-9-2-14-5c-1 0-1-1-2-1c-2-1-3-2-5-3c-2-1-4-2-6-3c-8-5-15-9-22-15c-1-1-2-1-3-2c-5-5-11-9-15-15c0-1 0-1 0-2z"/><path fill="#d7a061" d="m183.5 234.4c0 0 0 0 3 1c0 0 0 0 2 1c1 0 1 0 3 1c4 1 8 3 11 5c0 0 0 1 0 2c-1 0-2 0-4 0c0 1 0 2 0 3c-7-1-13-4-20-6c0-1 0-2 0-3c-1-1-2-1-3-1c0-1 0-2 0-3c4-2 5-1 8 0z"/><path fill="#9e5b40" d="m359 211c3 0 6-1 9 1c3 3 5 5 6 9c-1 0-3 0-4 0c0 1 0 3 0 4c-3-1-5-2-8-4c-2 0-2 0-4 0c-4-1-4-1-6-3c0-2 0-2 1-4c2 0 4 0 6 0c0-1 0-2 0-3z"/><path fill="#101115" d="m211 243c6 1 11 2 16 4c5 2 9 3 13 3c1 0 1-1 2-1c2 0 2 0 4 1c1 0 1 1 2 1c1 0 2 1 3 1c0 0 1 1 2 1c2 1 4 1 6 2c0 1 0 1 0 2c-1 0-3 0-4 0c0 1 0 1 0 2c-10-2-20-5-29-9c-2 0-3-1-5-1c-4-1-7-3-11-4c0-1 1-1 1-2z"/><path fill="#520b1e" d="m116 173c-4 3-8 4-12 5c-2 1-2 1-3 3c1 0 3 0 4 0c2 1 3 1 5 1c0 0 0 0 3 0c5 1 10 2 15 3c0 0 0 1 0 1c-1 0-1 0-2 0c-6-1-12-1-18-1c-1 0-1 0-2 0c-3 0-6 0-9 0c-2 0-4 0-6-1c-1 0-1 0-4 0c-3 0-5-1-7-3c1 0 2 0 3-1c1 0 3 0 4-1c1 0 1 0 2 0c4-1 8-2 12-3c1-1 2-1 2-1c2-1 4-1 5-2c6-1 6-1 8 0z"/><path fill="#7c412d" d="m286 258c3 0 3 0 21 2c0 1 0 1 0 2c-3 0-6 0-9 0c0 1 1 1 1 2c0 2 0 4 0 6c-7-1-13-2-19-4c1-1 3-1 4-2c0-1 0-3 0-4c1 0 1 0 2 0c0-1 0-1 0-2z"/><path fill="#e2a766" d="m116 139c4 0 9 0 13 0c2 0 3 0 4 0c1 0 1 0 4 0c0 0 0 0 3 0c3 0 3 0 5 1c0 1 0 1 1 5c-11 0-22-1-33-1c0-1 0-1 0-2c1 0 1 0 2 0c0-1 1-2 1-3z"/><path fill="#0d0609" d="m389 125c1 0 2 1 3 1c-1 2-2 3-3 5c0 1-1 2-1 3c-1 2-2 4-3 6c-7 12-13 24-18 38c0 0-1 1-1 2c0 0 0 0-3 1c1-6 3-11 6-17c0-1 0-2 1-3c5-12 12-24 19-36z"/><path fill="#eecb89" d="m178 12c12 1 23 2 35 4c0 1 0 1 0 2c-1 0-1 0-6 0c-2 0-2 0-3 2c-2 1-2 1-5 1c-1 0-1 0-4 0c-1 0-2 0-4-1c-2 0-5 0-8-1c0-1 0-1 0-2c-1 0-3-1-4-1c0-1-1-3-1-4z"/><path fill="#c28850" d="m224 249c7 2 15 5 22 7c0 1 0 1 0 2c-1 1-1 1-2 2c0 0 0 1 0 1c-9 1-17-2-25-5c1-1 2-2 3-2c2-3 2-3 2-5z"/><path fill="#871d2f" d="m186 161c5 0 5 0 30 1c0 1 0 2 0 3c-7 0-7 0-9-1c-2 0-3 0-5 0c0 0 0 0-3 0c0 0-1 0-2 0c-1 0-2 0-3 0c-8 3-8 3-10 7c-1 2-1 5-2 7c-1 2-2 4-3 6c-2-3-2-5-2-9c-1 1-2 3-3 4c0-3 0-4 2-6c5-4 5-4 7-4c1-3 2-5 3-8z"/><path fill="#ce914f" d="m249 28c0 1 1 3 1 4c1 0 2 0 3 0c0-1 1-3 1-4c7 1 14 3 21 6c0 0 0 0 1 2c-1 0-1 0-2 0c0 1 0 2 0 3c-7-1-14-2-21-5c-1 0-2 0-3-1c-3 0-5-1-8-2c4-3 4-3 7-3z"/><path fill="#a56639" d="m119 14c1 2 1 2 1 4c-2 2-6 2-8 2c-6 1-12 3-18 5c-2 1-2 1-5 1c0-2 0-2 1-5c8-5 20-7 29-7z"/><path fill="#1c181d" d="m116 20c-3 3-5 3-9 4c-6 1-10 2-15 5c-2 4-2 6-2 10c0 1 0 1 0 4c0 1 0 2 0 3c-2-3-2-6-2-10c0-1 0-2 0-3c0 0 0-1 0-2c-2 1-3 1-5 2c0 3-1 6-1 9c0 0-1 0-1 0c0-3 0-6 0-9c-2 0-5 0-7 0c0-2 1-3 1-5c2 0 3 0 5 0c0 1 1 2 1 3c1 0 1-1 2-1c10-6 21-11 33-10z"/><path fill="#eabe7c" d="m205 17c2 0 4 0 6 0c1 0 3 0 4 0c2 0 4 0 7 1c0 1 0 1 0 2c0 0 0 0 2-1c3 0 4 0 7 1c0 1 0 1 0 2c-1 0-3 0-4 0c0 1-1 2-1 3c-9 0-17-1-26-3c1 0 1-1 2-1c2-1 2-1 3-4z"/><path fill="#b0703d" d="m303 271c0 1 0 1 0 2c1 0 2 1 3 1c-2 0-3 0-5 0c0 1 0 1 0 2c-9 1-18-2-27-4c2-1 2-1 4-2c1 0 2 1 3 1c0-1 0-1 0-2c8-2 15 0 22 2z"/><path fill="#4f091d" d="m95 149c0 0 0 1 0 1c8 0 15 1 23 1c0 1 0 1 0 2c-3 1-4 1-7 0c-4 0-6 0-9 1c-1 2-1 5-2 7c0 0-1 0-1 0c0-3 0-5 0-8c-3 0-6 0-9 0c-1 0-2 0-3 0c-6 1-10 2-15 7c-1 0-2 0-3 0c0-2 0-2 1-5c5-2 10-4 15-5c1 0 2-1 2-1c6-1 6-1 8 0z"/><path fill="#170806" d="m96 191c4 1 7 3 11 5c2 1 3 1 5 2c3 2 7 3 10 5c1 0 2 1 2 1c2 1 3 1 4 2c2 1 4 2 6 3c0 1 0 1 0 2c-6-1-10-2-15-5c-1 0-2-1-2-1c-3-1-5-2-7-4c-2 0-4-1-5-2c-4-2-8-4-12-6c1-1 2-1 3-2z"/><path fill="#6f1024" d="m298 180c1 0 1 0 5 2c-2 12-2 12-4 17c-1 5-1 11-2 16c0 6 0 6-2 8c0 0 0 0-1 1c0-2 0-4 0-6c0 0 0 0 1-1c0-2 0-3 0-5c0 0 0-1 0-2c0-1 0-2 0-3c0-8 0-15 2-23c0-1 0-2 1-2c0-1 0-1 0-2z"/><path fill="#630f22" d="m307 230c1 2 2 4 2 6c0 1-1 2-1 3c0 2-1 3-1 5c0 1-1 3-1 4c1 0 1 0 2 0c0 1 0 3 1 4c0 1 0 2 0 3c0 1 0 1 0 2c-1 1-1 1-4 1c0 0-1 0-2 0c0 1 0 1 0 2c-2 0-4 0-6 0c1-2 1-3 2-5c0-1 1-2 1-3c1-2 1-2 3-4c1-3 1-3 1-6c0-1 0-1 1-3c0-1 0-2 0-3c1 0 1 0 2 0c0-2 0-4 0-6z"/><path fill="#15141d" d="m79 247c5 2 10 4 15 6c15 5 29 11 44 15c0 1 0 1 0 2c-5-1-10-2-14-3c-1 0-2-1-3-1c-14-5-28-10-42-17c0-1 0-1 0-2z"/><path fill="#1b151c" d="m391 125c2 1 3 1 5 2c0 1-1 1-1 2c-3 4-5 8-7 12c0 1-1 2-1 2c-1 1-1 2-2 3c0 0 0 0-1 2c-1 2-2 4-3 6c-1 2-1 2-3 3c-1 0-1 0-2 0c2-7 5-13 9-20c1-2 2-4 3-6c1-1 1-2 2-3c1-2 1-2 1-3z"/><path fill="#c49258" d="m137.9 3.9c1 0 2 0 3 0c2 0 4 0 6 0c0 1 0 1 0 2c1 0 3 0 4 0c0 1 0 1 0 2c1 0 2 1 3 1c-9 0-19 0-29 0c0-1 0-1 0-2c-1 0-2 0-3 0c0-1 0-1 0-2c5-1 11-1 16-1z"/><path fill="#1b1820" d="m234.5 259.7c2 1 4 1 6 2c0 1 0 2 0 2c1 0 1 0 5 1c0 2 0 3 0 4c-6 0-11-2-18-4c0 0-1 0-2-1c-2 0-4-1-7-2c6-3 10-4 16-2z"/><path fill="#1e0105" d="m354 224c1 0 1 0 2 0c2 5 2 9 2 14c0 1 0 2 0 3c0 5 0 9-2 14c0 1 0 1-1 2c-1 4-3 8-6 11c0-1 0-1 0-2c-1 0-1-1-2-1c1-1 1-2 2-3c5-8 5-17 5-27c0-1 0-1 0-3c0-3 0-5 0-8z"/><path fill="#282633" d="m17 168c0 1 0 1 0 2c3 0 6 0 9 0c0 1 0 3 0 4c-1 0-2 1-4 1c-3 1-4 2-5 4c-1 3-2 5-3 8c-1 0-1 0-2 0c-1-3-1-5-1-7c0-1 0-2 0-3c0-3 0-3 2-5c0 0 0-1 1-1c0-1-1-1-1-2c2-1 2-1 4-1z"/><path fill="#cd9258" d="m125 11c9 0 17 0 26 1c0 1 0 3 0 4c2 0 3 0 5 0c0 0 0 1 0 1c-9 0-17 0-26 0c0-1 0-2 0-3c-2 0-3-1-5-1c0-1 0-1 0-2z"/><path fill="#a43b44" d="m147 210c0 1 1 2 1 3c3 1 3 1 6 2c2 1 3 1 5 2c2 1 5 1 8 2c0 1 0 1 0 2c1 0 2 0 3 0c3 0 4 0 7 2c1 0 1 0 2 0c0 1 0 1 0 2c1 2 1 2 2 3c0 2 0 3 0 5c1 0 1 1 2 1c-1 0-2 0-3 0c0-1 0-3 0-4c-1 0-1 0-2 0c-1-1-1-1-2-2c-2-2-4-3-8-5c-1 0-2 0-3-1c-3-1-7-2-10-3c-3-1-5-3-8-4c-3-1-6-2-9-3c3-2 5-2 9-2z"/><path fill="#945a3c" d="m276 178c6 2 11 4 16 8c1 3 1 3 0 6c-4-1-7-2-11-4c-4-3-7-5-11-6c0-1 1-1 1-2c1 0 1 0 5 2c0-1 0-3 0-4z"/><path fill="#761427" d="m114 146.9c1 0 2 0 3 0c2 0 5 0 7 0c0 1-1 3-1 4c3 0 6 0 9 0c0 1-1 1-1 2c-12-1-24-1-36-2c0-1 0-2 0-3c6-1 13-1 19-1z"/><path fill="#651127" d="m232 214c5 1 9 3 14 5c1 0 2 1 2 1c4 2 8 3 11 5c0 1 0 1 0 2c1 0 2 1 3 1c-5 1-8 0-12-2c-1 0-2-1-3-1c-2-1-4-2-6-3c-3-1-5-2-8-3c0-1 1-3 1-4c-1 0-1-1-2-1z"/><path fill="#bf804a" d="m52 172c4 1 8 2 12 4c1 0 2 1 2 1c2 1 2 1 5 3c1 4 1 4 1 7c0 0 0 0-2 1c-3-1-5-3-8-4c0 0-1-1-2-1c-2-1-3-2-5-3c0-1 0-2 0-2c0-3 0-3-1-5c-1 0-1-1-2-1z"/><path fill="#965b34" d="m344 279c5 1 10 2 15 3c0 3 0 3-2 7c-3-1-3-1-21-4c0-1 1-3 1-4c1 0 2 0 3 0c1 1 1 1 2 2c1-1 1-3 2-4z"/><path fill="#d49c5e" d="m102.3 197.3c3 1 5 2 8 3c1 1 2 1 3 2c0 0 0 0 2 1c-2 4-2 4-4 6c-4 0-6-2-9-4c-1 0-1 0-2-1c-1-1-3-1-4-2c0-2 0-2 1-4c3-1 3-1 5-1z"/><path fill="#ae7744" d="m131 138c0 0 0 1 0 1c-1 0-1 0-3 0c-2 0-3 0-4 0c-1 0-2 0-3 0c-1 1-3 1-5 1c0 1-1 1-1 2c-1 0-1 0-2 0c0 1 0 1 0 2c-6 0-11 0-17 0c0-1-1-3-1-4c11-4 24-2 36-2z"/><path fill="#070103" d="m334 261c0 2 0 3 0 5c1 0 2 1 2 1c3 1 3 1 5 3c0 1 0 3 0 4c-2-1-4-2-6-3c-1 0-1-1-2-1c-1-1-1-1-2-1c-2-1-4-1-6 0c-4 0-4 0-7 0c-1-1-1-1-2-2c14-6 14-6 18-6z"/><path fill="#ab794d" d="m352 73c4 1 7 3 10 6c5 4 5 4 7 5c-1-3-2-6-4-9c8 5 12 9 14 18c-1 0-2 0-3 0c-1-1-3-3-4-4c-2-1-3-2-5-3c-6-3-10-8-15-13z"/><path fill="#d6aa6c" d="m231 13c4 1 7 2 11 3c0 1 0 1 0 2c-1 0-2 0-3 0c-4 0-4 0-7 1c-2 0-2 0-4-1c0 1-1 1-1 2c-2 0-3 0-5 0c0-1 0-1 0-2c-1 0-2 0-2 0c-3-1-3-1-5-3c5-3 10-2 16-2z"/><path fill="#160f10" d="m260 167c3 1 6 2 9 3c0 1 0 1 0 2c0 0 0 0 2 0c4 1 7 3 10 5c1 0 1 0 2 1c2 0 3 1 5 2c0 1 0 1 0 2c5-2 5-2 7-3c-1 2-1 2-2 5c-2 1-2 1-4 1c-3-1-3-1-6-3c-1 0-1 0-2-1c-1 0-2-1-4-2c-2-1-4-2-5-3c-2 0-3-1-4-2c-1 0-2-1-3-1c-3-2-3-2-5-6z"/><path fill="#711729" d="m370 221c2 0 3 0 5 0c0 2 1 5 1 7c-1 0-1 0-6-1c0 1 0 1 0 2c0 1 0 2 0 3c0 1-1 2-1 2c0 3-1 5-2 7c-1 0-1 0-2 0c0-6 0-12 0-18c1 0 1 0 5 2c0-1 0-3 0-4z"/><path fill="#a67044" d="m117 11c-4 2-7 3-11 4c-1 0-2 0-2 1c-5 1-9 2-14 3c1-4 3-5 6-7c0-1 1-1 1-2c6-2 14-2 20 1z"/><path fill="#b37e50" d="m38.1 158.1c3 1 6 2 9 4c0 1 0 1 0 2c-3-1-5-1-7-2c-7-1-13-1-20-1c-1 0-2 0-3 0c-2 0-5 0-7 0c6-7 20-6 28-3z"/><path fill="#1c1210" d="m182 227c1 0 1 0 2 0c0 1 0 2 0 3c2 0 3 1 5 1c0 1 1 2 1 3c2 1 5 2 7 2c5 2 9 3 13 7c-4 1-5 1-9-1c-1 0-2-1-3-1c-1 0-2-1-3-1c-1-1-2-1-4-2c-8-3-8-3-9-5c0-2 0-4 0-6z"/><path fill="#a06338" d="m325 276c6 1 13 2 19 3c0 1 1 2 1 3c0 1-1 1-1 2c-1 0-3-1-4-1c0-1 0-1 0-2c-1 0-1 1-2 1c-3 2-4 3-8 2c-3-2-3-2-5-4c0-1 0-3 0-4z"/><path fill="#291e1d" d="m262 37c7 1 13 3 19 6c1 0 2 0 3 1c8 3 17 7 25 11c0 1 0 2 0 3c-1-1-2-1-3-2c-23-10-23-10-29-12c-2 0-4-1-7-2c0 0-1-1-2-1c-2-1-4-2-6-3c0 0 0-1 0-1z"/><path fill="#831b2f" d="m189 200c2 0 4 1 6 1c1 1 3 1 4 1c6 2 6 2 8 5c0 1 1 1 1 2c-6-1-11-1-17-3c-2 0-2 0-5 0c0-1-1-1-1-2c-1 0-2-1-3-1c0 0 0 0 3 0c0 0 0 0 3-1c0-1 1-1 1-2z"/><path fill="#a7784d" d="m24.2 160c3 0 5 0 8 0c0 0 0 1 0 1c-1 0-2 0-3 1c-1 0-3 0-4 0c-1 1-2 1-4 1c-3 1-5 2-8 4c0 1 0 3 0 4c-4 0-6-1-8-4c1-3 2-4 4-6c5-1 10-1 15-1z"/><path fill="#1f0407" d="m370 228c1 0 1 0 2 0c0 6 0 11-2 16c0 2-1 3-1 5c0 0 0 1 0 2c-2 4-2 9-3 13c0 1 0 1-1 3c0 0 0 0-2 1c1-10 2-21 5-31c1-3 1-6 2-9z"/><path fill="#c18c5b" d="m357 283c6 1 11 2 15 6c2 2 2 2 2 6c-1 0-1-1-2-1c-3-1-6-2-9-3c0 0 0 0-3-1c-1 0-1-1-2-1c0-2-1-4-1-6z"/><path fill="#d09352" d="m86 191c5 1 10 2 15 5c-2 2-3 3-5 5c-4-1-8-3-12-5c0-1 0-2 0-3c1 0 1 0 2 0c0-1 0-1 0-2z"/><path fill="#120806" d="m300 172c7-1 13 1 19 6c1 3 1 4 0 7c-1-1-1-1-2-2c-5-3-9-5-15-6c0-1 0-2 0-3c-1-1-1-1-2-2z"/><path fill="#992435" d="m124 144c3 0 3 0 7 0c1 1 1 1 2 2c2 0 4 1 6 1c0 1 0 1 0 2c3 0 5 0 8 0c0 1 1 2 1 3c1 0 1 0 5 1c0 2 0 4 0 6c0 0 0 0-2 1c0-2 0-3 0-5c-4-2-7-2-11-3c-3-1-6-1-9-2c0-1 0-1 0-2c-1 0-2-1-3-1c-3-1-3-1-4-3z"/><path fill="#781528" d="m341 215c3 1 4 2 5 4c1 3 1 6 1 9c0 1 0 2 0 3c-1 4-1 8-2 12c-1 0-1 0-2 0c0-1 0-2 0-3c0-8 0-15-2-23c0-1 0-1 0-2z"/><path fill="#b68052" d="m47.6 168.7c1 1 3 2 4 2c-4 2-6 0-10-2c-6-2-13-4-21-5c0 1 0 2-1 3c-1 1-1 1-4 2c0 0 0 0-2 1c0 0-1 0-2 0c1-3 1-3 4-5c10-5 22-1 32 4z"/><path fill="#e4ab68" d="m187 146c2 0 2 0 12 3c0 1 1 3 1 4c3 1 3 1 6 2c0 0 0 1 0 1c-8-1-15-2-23-4c0 0 1-1 1-1c2-2 2-2 3-5z"/><path fill="#9f653d" d="m362 89c1 0 1 1 2 1c2 1 2 1 5 0c3 0 3 0 5 2c2 2 4 4 5 6c0 2 0 2-1 4c-1 0-2 1-3 1c-2-2-4-4-7-6c0-1-1-2-1-2c-1-1-2-1-2-2c0 0 0 0-2-2c-1-1-1-1-1-2z"/><path fill="#ad7649" d="m324 47c3 1 5 3 8 4c0 1 0 1 0 2c-1 0-3 1-4 1c0 1 1 3 1 4c-4-1-7-3-10-6c-1-1-2-1-3-2c0-1 0-1 0-2c3-1 5-1 8-1z"/><path fill="#eab76e" d="m163 11c2 0 5 0 7 0c0 1 0 1 0 2c3 0 5-1 8-1c0 1 1 1 1 2c3 1 3 1 5 1c0 1-1 3-1 4c-7 0-13-1-20-3c0-2 0-3 0-5z"/><path fill="#e5b977" d="m114 204c5 1 9 3 13 5c0 1-1 2-1 3c-1 0-2 1-3 1c0 1 0 1 0 2c-4-2-8-4-12-6c1-2 2-3 3-5z"/><path fill="#9b2438" d="m183 196c1 0 1 1 2 1c0 1-1 1-1 2c1 0 1 0 5 1c0 1-1 2-1 3c-7 0-13 0-20 0c1-2 3-4 4-6c1 0 1 0 2 0c0 0 0 0 2 1c1 0 2 0 3 0c1 0 1 0 2 0c1-1 1-1 2-2z"/><path fill="#dd9f5e" d="m163 11c0 1 0 2 0 3c3 0 6 0 9 0c-1 1-2 1-3 2c1 1 2 1 3 2c-7 0-14 0-21-2c0-1 0-3 0-4c4-1 8-1 12-1z"/><path fill="#8e2033" d="m143 185c0 1 0 1 0 2c2 0 3-1 5-1c1 2 1 4 2 6c-3 3-5 3-9 3c-1 0-2 0-3 0c-2 0-2 0-4-1c0-1 0-1 0-2c1 0 1 0 7-1c0-1 1-3 1-4c-1 0-3-1-4-1c3-1 3-1 5-1z"/><path fill="#17090c" d="m5 168c0 0 0 0 2 1c3 1 5 1 8 1c0 0-1 1-1 2c-3 3-3 6-3 10c-1 0-2 1-3 1c-1-1-1-3-2-4c0 0 0 0-2 1c0-2 0-3 0-5c0-1 0-2 0-3c0-2 0-2 1-4z"/><path fill="#652322" d="m343 215c3 0 6 0 9 0c1 1 1 3 2 4c2 1 2 1 5 1c1 0 2 1 3 1c0 0 0 0 2 0c-1 0-2 1-3 1c0 1-1 2-1 3c-2 0-5 0-7 0c0-1-1-3-1-4c-1 0-1 0-2 0c-3 0-3 0-5-3c-1-1-1-2-2-3z"/><path fill="#5b0f21" d="m116 173c-4 3-8 4-12 5c-2 1-2 1-3 3c1 0 3 0 4 0c2 1 3 1 5 1c0 0 0 0 3 0c5 1 10 2 15 3c0 0 0 1 0 1c-4 0-8 0-12-1c-1 0-3 0-4 0c-2 0-4 0-6 0c-1 0-2-1-3-1c-3 0-3 0-5-2c0-1 0-3 0-4c1 0 1 0 2 0c0-1 0-1 0-2c2-1 5-1 7-2c1 0 1 0 2-1c5-1 5-1 7 0z"/><path fill="#c0834f" d="m390 110c1 0 1 0 8 2c0 3 1 5 1 8c-3-1-4-1-7-3c0 2-1 4-1 6c-1 0-1 0-2 0c-1-5-1-8 1-12c0 0 0-1 0-1z"/><path fill="#d79b53" d="m239 24c2 0 5 1 7 1c1 1 3 1 4 1c1 0 2 1 3 1c0 1 1 1 1 2c0 1-1 2-1 3c-1 0-2 0-3 0c0-1-1-3-1-4c-1 0-1 1-2 1c-5 2-11 1-17-1c1-1 1-1 2-2c3 0 3 0 6 1c0-1 1-2 1-3z"/><path fill="#eab771" d="m145 140c6 0 12 1 18 1c-1 0-1 0-4 2c0 1 0 3 0 4c-2 0-4 0-6 0c-1 0-2-1-3-1c-3 0-3 0-5-2c0-1 0-3 0-4z"/><path fill="#d89151" d="m116 139c5 0 11 0 16 0c0 1-1 2-1 3c-1 0-1 0-2 0c0 1 0 1 0 2c-5 0-11 0-16 0c0-1 0-1 0-2c1 0 1 0 2 0c0-1 1-2 1-3z"/><path fill="#a6673b" d="m314 52c5 1 9 3 13 5c-2 2-3 3-5 5c-4-2-9-4-13-6c1 0 3-1 4-1c0-1 1-2 1-3z"/><path fill="#e1a15b" d="m184.2 234.9c1 0 2 1 3 1c0 0 0 0 2 1c0 1 0 1 0 2c0 0 1 0 2 0c-1 1-1 2-1 3c-3 0-6 0-9-1c-1 0-2 0-2 0c0-1 0-2 0-3c-1 0-2-1-3-1c0-1 0-2 0-3c4-1 4-1 8 1z"/><path fill="#370a13" d="m367 265c1 2 1 4 0 6c0 1 0 2-1 2c-1 4-3 6-3 10c-1 0-3-1-4-1c1-2 1-4 2-6c-1 0-1-1-2-1c1-3 2-6 3-9c1 0 1 1 2 1c1-1 2-1 3-2z"/><path fill="#99603a" d="m317 274c3 0 5 1 8 1c1 3 2 5 3 8c-2 0-4 0-5 0c-1 0-2-1-3-1c-3 0-5-1-7-2c1 0 3 0 4 0c0-1-1-2-1-3c0-1 1-2 1-3z"/><path fill="#0c0b13" d="m334.2 270.1c1 0 1 1 2 1c1 0 1 1 2 1c0 1 0 2 0 3c-2 0-4-1-6-1c-2 0-3 0-4 0c-3-1-5-2-8-3c0-1 0-1 0-2c6-2 8-2 14 1z"/><path fill="#1b110c" d="m211 243c5 1 10 2 15 3c0 1 1 1 2 1c1 1 3 1 5 2c1 0 2 1 3 1c1 0 1 1 2 1c0 1 1 2 1 3c-10-2-19-5-29-9c0-1 1-1 1-2z"/><path fill="#7a1a2a" d="m216 162c1 0 1 0 2 0c0 1 0 1 0 2c1 0 1 0 6 1c0 1 1 2 1 3c1 0 1 1 2 1c-5 0-10 0-15-1c-1-1-2-1-3-1c-4-1-7-2-10-3c0 0 0-1 0-1c6 0 11 0 17 2c0-1 0-2 0-3z"/><path fill="#33100b" d="m107.2 143.9c1 0 2 0 3 0c1 0 2 0 3 0c1 0 1 0 3 0c3 0 5 0 8 0c0 1 0 2 0 3c-9 0-17 0-26 0c0-1 0-1 0-2c3-1 6-1 9-1z"/><path fill="#7d1b2d" d="m181 221c7 2 13 4 19 8c0 0 0 1 0 1c-6-1-11-1-17-3c0 2-1 4-1 6c0 0-1 0-1 0c-2-6-2-6-2-9c2 0 3 1 5 1c0-1 0-1 0-2c-1 0-2 0-3 0c0-1 0-1 0-2z"/><path fill="#c0844c" d="m248 165c1 0 3 1 4 1c1 0 1 0 3 1c0 0 0 0 2 1c0 1 1 2 1 3c-1 0-1 0-2 0c0 1 0 1 0 2c-2 0-3-1-5-1c-1 0-2 0-3 0c-3-1-5-2-8-3c1-2 1-2 3-3c3 0 3 0 5 1c0-1 0-1 0-2z"/><path fill="#721325" d="m319 192c-1 0-2 0-3 0c0 1 0 2 0 3c-1 1-1 3-1 4c0 1 0 3 0 4c-1 3-1 3-2 4c0 3 0 5 0 8c0 3-1 5-2 8c0 0-1 0-1 0c-1-7-1-13 1-20c1-3 1-6 1-9c1 0 1-1 1-2c2-1 3-1 6 0z"/><path fill="#7c402f" d="m328 194c7 6 10 14 10 23c-1 0-1 0-2 0c0-1 0-1-1-2c-3-8-3-8-5-11c-3-3-2-6-2-10z"/><path fill="#0f0204" d="m68 152c1 0 2 1 3 1c0 1-1 1-1 2c-1 2-2 5-2 8c-1 4-3 8-4 12c-2 0-3-1-5-1c0-1 0-1 0-2c1 0 1 0 2 0c2-6 4-11 5-17c1-2 1-2 2-3z"/><path fill="#50091d" d="m263 227c2 1 3 2 5 2c0 1 0 1 3 2c2 1 2 1 4 3c0 1 0 3 0 4c-4-1-7-2-11-4c-1-1-2-1-3-2c-1 0-2-1-3-1c0 0 0-1 0-1c2 0 3 0 5 0c0-1 0-2 0-3z"/><path fill="#e3b275" d="m155 222c3 2 3 2 5 3c-4 1-5 0-9-1c1 3 3 3 5 4c0 1 0 1 0 2c-5-1-9-3-14-5c1 0 2-1 3-1c0-1 0-1 0-2c4-1 6-1 10 0z"/><path fill="#4c0d1c" d="m285 232c0 0 1 0 1 0c0 4 0 8 0 12c-1 0-1 0-2 0c0 6 0 11 2 16c-1 0-1 0-2 0c0 1 0 3 0 4c-3 1-6 1-9 1c0 0 0-1 0-1c2 0 4-1 6-1c0-1 0-1 0-2c0-3 1-6 1-8c0-1 0-1 0-3c1-6 2-12 3-18z"/><path fill="#2e0b11" d="m64 152c1 0 3 1 4 1c-1 2-2 5-2 7c-1 1-1 2-1 2c-1 4-2 7-5 10c-1-5 0-8 1-13c1-1 1-1 1-2c1-2 1-3 2-5z"/><path fill="#701125" d="m307 225c1 4 1 7 0 11c-1 0-1 0-2 0c0 1 0 2 0 2c-1 11-1 11-5 15c0 1-1 3-1 4c0 0 0 0-2 1c0-1 1-3 1-4c0 0 0 0 0-2c1-2 1-2 2-3c1-3 1-5 1-8c1-3 2-5 3-7c1 0 1 0 2 0c0-1 0-2 0-3c0-4 0-4 1-6z"/><path fill="#881a2c" d="m306 211c1 0 1 0 2 0c0 2 0 4 0 5c0 1 0 2 0 3c0 3 0 3-2 6c0 2-1 5-1 7c-1 0-1 0-2 0c-1-8-1-14 3-21z"/><path fill="#210d09" d="m115 200c6 3 13 6 19 9c0 1 0 1 0 2c-6-1-10-2-14-5c-1 0-1 0-2-1c-2 0-3-1-5-2c1 0 1-1 2-1c0-1 0-1 0-2z"/><path fill="#420918" d="m356 225c2 0 3 0 5 0c0 1 0 1 0 2c-1 2-1 5-1 8c0 1 0 2 0 3c0 2 0 2 1 3c1 5 1 5 0 8c-3 2-3 2-5 4c0-1 0-1 0-2c1-4 1-8 1-13c0 0 0-1 0-2c0-1 0-2 0-3c0 0 0 0 0-2c0-2 0-4-1-6z"/><path fill="#b2693e" d="m301 177c4-1 6-1 9 2c2 2 2 2 2 6c-2 0-4-1-6-1c-1-1-2-1-3-1c-1 0-1 0-3-1c0-1-1-1-1-2c1-1 1-2 2-3z"/><path fill="#a06b40" d="m349 68c6 0 8 2 13 5c1 2 1 2 1 6c-11-4-11-4-13-9c-1 0-1-1-1-2z"/><path fill="#1a1922" d="m261 270c2 0 3 1 5 1c1 0 2 0 3 0c3 1 5 1 8 2c0 1-1 3-1 4c1 0 1 1 2 1c-3-1-3-1-18-4c0-1 1-3 1-4z"/><path fill="#e8bb81" d="m176 144c4 1 7 1 11 2c0 2 0 3 0 5c-1 0-3 0-4 0c-1 0-2 0-3 0c-2 0-2 0-5-2c1 0 1 0 2 0c0-1 0-1 0-2c-1 0-1-1-2-1c0-1 1-1 1-2z"/><path fill="#271b18" d="m89 26c1 0 1 1 2 1c0 1-1 2-1 3c-3 1-3 1-6 2c-2 2-1 3-2 6c0 0 0 1 0 2c0 1 0 1 0 2c0 0-1 0-1 0c0-3 0-6 0-9c-2 0-5 0-7 0c0-2 1-3 1-5c2 0 3 0 5 0c0 1 1 2 1 3c1 0 1-1 2-1c0-1 1-1 2-2c1 0 1-1 2-1c1 0 1-1 2-1z"/><path fill="#b67d49" d="m246 256c2 0 3 1 5 1c1 2 1 4 1 6c0 0 0 0 2 3c-5-1-11-3-16-4c0 0 0-1 0-1c1 0 2 0 2 0c1-1 2-1 3-1c0-1 1-1 1-2c1 0 1 0 2 0c0-1 0-1 0-2z"/><path fill="#0d060a" d="m10 182c2 3 3 5 4 9c2 4 4 8 7 12c0 1 1 1 1 2c0 1-1 2-1 3c-13-17-13-17-12-24c1-1 1-1 1-2z"/><path fill="#dda461" d="m227 21c3 0 5 0 8 0c0 1 0 1 0 2c1 1 3 1 4 2c0 1-1 1-1 2c-2 0-4 0-6 0c0 0 0 0-3 0c-3 0-5 0-7-2c1 0 3 0 4 0c0-1 1-3 1-4z"/><path fill="#ecb46c" d="m221.9 18.9c1 0 2 0 3 0c2 0 4 0 6 1c0 1 0 1 0 2c-1 0-3 0-4 0c0 1-1 2-1 3c-3 0-6 0-9 0c-1-2-1-3-2-5c3-1 4-1 7-1z"/><path fill="#be844f" d="m277.1 265c1 0 2 0 2 0c1 0 1 0 3 1c2 0 2 0 5 1c0 1 0 1 0 2c-2 0-4 0-6 0c0 1 0 1 0 2c-3 0-6 0-9 0c0-1-1-1-1-2c4-4 4-4 6-4z"/><path fill="#5f0e22" d="m335 245c0 1 0 3 0 4c0 1 0 2 0 3c0 2 0 2-2 5c-1 0-3 0-4 0c0-7 0-7 1-10c2-2 2-2 5-2z"/><path fill="#15141d" d="m35 217c1 1 2 2 3 2c4 4 9 8 13 11c2 2 4 3 6 5c-9-1-17-10-24-16c1-1 1-1 2-2z"/><path fill="#9b623c" d="m276 178c6 2 6 2 8 4c0 1-1 2-1 3c0 1 1 1 1 2c-5-1-9-2-14-5c0-1 1-1 1-2c1 0 1 0 5 2c0-1 0-3 0-4z"/><path fill="#3c2c23" d="m374 291c2 0 5 1 7 1c-1 6-1 6-2 9c-2 1-2 1-5 1c0 0 0 0 1-2c0-1 0-2 0-3c-1-1-1-1-2-2c0-2 0-2 1-4z"/><path fill="#51091b" d="m349 251c0 0 1 0 1 0c1 5-1 10-4 14c-1 0-2 1-3 1c-1-1-1-3-2-4c2-4 5-8 8-11z"/><path fill="#661325" d="m240 171c1 0 3 1 4 1c1 1 1 1 3 1c2 1 4 2 6 3c-1 1-1 3-2 4c-4-1-8-3-12-4c0-2 1-3 1-5z"/><path fill="#d18e51" d="m217 154c3 1 5 2 8 3c0 1 0 1 0 2c1 0 1 0 6 1c0 1 0 1 0 2c-2 0-3 0-5 0c-1 0-2 0-2 0c-3 0-5-1-7-2c0-2 0-4 0-6z"/><path fill="#a45c45" d="m190 156c10-1 18 1 28 4c0 0 0 1 0 1c-10 1-19-1-28-4c0 0 0-1 0-1z"/><path fill="#cda268" d="m147 4c5 0 9 0 14 0c1 2 1 3 2 5c-1 0-3 0-4 0c-1 0-1 0-3 0c-2 0-2 0-5-1c0-1 0-1 0-2c-1 0-3 0-4 0c0-1 0-1 0-2z"/><path fill="#641122" d="m348 232c2 0 2 0 4 1c1 3 1 5 1 8c1 0 1 0 2 0c0 6 0 6-1 8c-1 0-1 0-2 0c0-3-1-7-1-10c-2 0-3-1-5-1c1-2 1-4 2-6z"/><path fill="#edb570" d="m151 224c2 0 3 0 5 0c1 0 2 1 3 1c2 0 2 0 5 2c-1 2-1 4-2 6c-3-1-3-1-6-2c0-1-1-2-1-3c-2-1-2-1-4-2c0-1 0-1 0-2z"/><path fill="#211519" d="m361 196c1 0 1 0 2 0c-1 5-2 9-3 14c1 0 1 1 2 1c-1 0-2 0-3 0c0 1 0 2 0 3c-1 0-1-1-2-1c0-6 0-10 3-16c0 0 1-1 1-1z"/><path fill="#4a291f" d="m68 143c2 1 5 1 7 2c0 0 0 0-1 1c-2 2-3 3-3 6c-2 0-5 0-7 0c1-6 1-6 3-8c0 0 1-1 1-1z"/><path fill="#b27543" d="m295 269c0 1 0 1 0 2c-2 0-5 0-7 0c0 1-1 2-1 3c-4-1-9-1-13-2c1-1 3-1 4-2c1 0 2 1 3 1c0-1 0-1 0-2c5-1 9-1 14 0z"/><path fill="#c08460" d="m157 223c7 0 12 0 18 4c1 2 1 2 1 4c-15-4-15-4-19-8z"/><path fill="#b87561" d="m157 147c3 0 6 1 8 1c1 0 2 0 3 0c5 1 10 2 15 3c0 0 0 1 0 1c-17 0-17 0-24-2c-1-1-1-2-2-3z"/><path fill="#a16036" d="m98.8 19.4c1 0 2 0 2 0c1 0 1 0 2 1c0 0 0 1 0 2c-2 0-3 1-5 2c-1 0-2 0-3 1c-3 1-3 1-6 1c0-3 0-3 1-5c3-2 5-3 9-2z"/><path fill="#58241b" d="m298 262c1 0 1 0 2 0c0 1 0 1 0 2c2 0 4 0 5 0c1-1 2-1 3-1c3 0 3 0 5-1c2 0 2 0 5 1c0 0 1 0 2 1c0 0 0 0 2 0c0 0 0 1 0 1c-3 0-3 0-21 2c0 1-1 3-1 4c-2-7-2-7-2-9z"/><path fill="#430416" d="m336 260c0 1 1 1 1 2c3 1 3 1 5 1c0 1 1 2 1 3c2 1 2 1 4 1c-3 2-3 2-7 2c-3-1-3-1-6-3c1-2 1-4 2-6z"/><path fill="#560e20" d="m290 214c0 0 1 0 1 0c1 6 1 11 1 17c-2 0-4 1-6 1c0-2 1-3 1-5c0-1 0-2 0-3c1-2 1-2 2-3c0-2 1-5 1-7z"/><path fill="#1e1110" d="m260 167c3 1 6 2 9 3c0 1 0 1 0 2c1 0 2 0 2 0c3 1 3 1 6 2c1 2 1 2 1 4c-6-2-12-5-17-8c0-1-1-2-1-3z"/><path fill="#10060a" d="m77 82c0 0 1 0 1 0c0 3 1 7 1 10c1 0 1 0 2 0c0 4 0 7 0 11c0-1-1-2-1-3c-1 0-1 0-2 0c0 3-1 5-1 8c0 0-1 0-1 0c0-9 1-17 1-26z"/><path fill="#87192b" d="m312 187c2 0 2 0 4 1c1 1 1 2 2 3c-2 0-3 1-5 1c0 1 0 3 0 4c0 2 0 2 0 4c-2 2-2 2-4 3c0-2 0-3 0-5c0-1 1-2 1-3c0-3 1-5 2-8z"/><path fill="#921f32" d="m182 169c0 6 0 10-3 15c-2-3-2-5-2-9c-1 1-2 3-3 4c0-3 0-4 2-6c5-4 5-4 6-4z"/><path fill="#691226" d="m112 146.9c1 0 2 0 2 0c2 0 4 0 6 0c0 0 0 1 0 1c-5 0-10 1-15 1c1 0 1 0 6 1c0 0 0 1 0 1c-5 0-11 0-16 0c0-1 0-2 0-3c6-1 11-1 17-1z"/><path fill="#d9b074" d="m224.7 12.9c1 0 2 0 4 0c0 0 0 0 2 0c0 1 0 1 0 2c-2 1-5 1-8 2c1 1 1 2 1 3c0 0-1 0-2 0c0-1 0-1 0-2c0 0-1 0-2 0c-3-1-3-1-5-3c4-2 6-2 10-2z"/><path fill="#1f0206" d="m338 218c1 0 2 1 3 1c0 8 0 16 0 24c0 0-1 0-1 0c0-4 0-7 0-11c-1 0-1 0-2 0c0-5 0-9 0-14z"/><path fill="#a53945" d="m156 150c7 0 13 1 20 2c1 1 2 1 3 1c2 1 5 1 7 2c0 1-1 2-1 3c-1 0-1 0-5-1c0-1 0-1 0-2c-1 0-1 0-2 0c-7-1-15-2-22-4c0 0 0-1 0-1z"/><path fill="#211515" d="m110 138c0 0 0 1 0 1c-7 1-15 1-22 2c0 0 0-1 0-1c-1 0-1 0-6-1c0 0 0-1 0-1c9-2 19-1 28 0z"/><path fill="#855d40" d="m392 117c3 1 5 3 7 5c0 1 0 1-3 5c-2-1-4-1-6-2c0-1-1-1-1-2c1 0 1 0 2 0c0-2 1-4 1-6z"/><path fill="#eabc78" d="m126 210c2 0 3 1 5 1c0 1 0 2 0 3c1 0 1 0 2 0c0 1 0 1 0 2c-2 1-2 1-5 2c-3-1-3-1-5-3c0-1-1-2-1-3c1 0 3 0 4 0c0-1 0-1 0-2z"/><path fill="#420a18" d="m95 188c10 0 20 0 30 0c0 0 0 1 0 1c-1 0-1 0-2 0c-2 0-5 0-8 0c0 0 0 0-3 0c-1 1-1 1-2 1c-1 0-2 0-3 0c-2 0-2 0-5 2c0 0 0 0-2 1c-3-1-3-1-5-3c0-1 0-1 0-2z"/><path fill="#96673f" d="m56.8 167.4c1 1 2 1 3 2c0 1 0 3-1 5c-4-1-6-2-10-4c0-1 0-2 0-2c3-3 4-2 8-1z"/><path fill="#c4834c" d="m90 20c0 3 0 3-1 7c-5 4-5 4-8 4c0-3 0-5 2-8c4-3 4-3 7-3z"/><path fill="#eece91" d="m194 14c6 1 13 1 19 2c0 1 0 1 0 2c-1 0-1 0-4 0c-4 0-4 0-6 2c0 0 0 0-1 1c-3 0-3 0-5-1c1-1 1-2 2-3c-1 0-1 0-5-2c0 0 0-1 0-1z"/><path fill="#c38c54" d="m135 4c0 2 0 3 0 5c-3 0-7 0-10 0c0-1 0-1 0-2c-1 0-2 0-3 0c0-1 0-1 0-2c4-1 9-1 13-1z"/><path fill="#171016" d="m373 300c0 1 1 1 1 2c1 0 1 1 2 1c-4 4-8 5-14 6c2-5 6-7 11-9z"/><path fill="#1b1214" d="m330 284c7 0 13 1 20 3c0 1 0 1 0 2c-6 1-6 1-8 1c-1-1-1-1-2-2c-2-1-2-1-5-1c-1 0-2 0-3-1c-1 0-1 0-2 0c0-1 0-1 0-2z"/><path fill="#221f25" d="m241 262c5 1 10 3 15 4c-4 4-4 4-7 4c-1 0-2 0-3 0c0-2 0-3 0-5c-2 0-3-1-5-1c0-1 0-1 0-2z"/><path fill="#871d2c" d="m303 182c1 0 1 0 2 0c-1 8-2 16-3 25c0 0-1 0-1 0c0-3 0-6 0-10c0-1 0-2 0-2c0-5 0-9 2-13z"/><path fill="#a75d3e" d="m311 179c4 2 6 3 9 6c-1 1-1 3-2 4c-2-1-4-1-6-2c-1-3-1-5-1-8z"/><path fill="#9a6742" d="m86 22c-2 2-4 5-6 7c-3 0-3 0-5-1c0-2 1-4 1-6c4-1 6-1 10 0z"/><path fill="#b45e51" d="m157 219c4 1 7 2 11 3c1 1 1 1 3 2c3 1 5 2 7 4c0 1 0 1 0 2c1 0 1 0 2 0c0 1 0 2 0 3c-1 0-3-1-4-1c0-2-1-3-1-5c-1 0-1 0-2 0c-3-1-6-2-9-3c-1-1-2-1-3-2c-3-1-3-1-4-3z"/><path fill="#d59859" d="m211 152c2 1 4 1 6 2c0 1 0 1 0 2c1 0 1 1 2 1c0 0 0 0-2 3c-5-1-9-2-14-3c1 0 3-1 4-1c1 0 2-1 3-1c0-1 1-2 1-3z"/><path fill="#8b5435" d="m286 264c6 0 6 0 8 0c2 2 2 2 2 5c1 0 2 1 3 1c-5-1-10-1-15-3c1 0 1-1 2-1c0-1 0-1 0-2z"/><path fill="#6b1528" d="m364 239c0 1 1 1 1 2c1 0 2-1 3-1c0 2-1 3-1 5c0 1 0 2 0 3c-1 2-1 2-2 5c-1 0-2 1-3 1c0-6 0-10 2-15z"/><path fill="#6f1322" d="m298 180c1 0 1 0 5 2c-1 4-1 9-2 13c-2-3-2-4-3-7c-1 1-1 2-2 3c1-7 1-7 2-11z"/><path fill="#8d2031" d="m137 179c1 2 1 2 1 4c0 0 0 0-2 3c-7-1-7-1-9-2c0-1 0-1 0-2c7-3 7-3 10-3z"/><path fill="#d38f4e" d="m271.7 33.4c1 0 2 1 2 1c1 0 2 0 2 1c0 0 0 0-2 1c0 1 0 2 0 3c-1-1-1-1-6-1c0-1 0-2 0-2c-1-1-3-1-5-1c2-5 5-3 9-2z"/><path fill="#ad7748" d="m123 10c0 1 0 1 0 2c-4 0-8 0-12-2c-2 0-5 0-7 0c3-6 14-2 19 0z"/><path fill="#dac28b" d="m192 7c2 0 3 0 5 0c1 0 2 1 3 1c2 0 2 0 4 2c-2 2-2 2-4 3c-3 0-4-1-7-2c-1-2-1-2-1-4z"/><path fill="#2e040c" d="m330 227c1 0 2 1 3 1c1 4 1 4 2 7c1 0 2-1 3-1c-1 3-1 7-2 10c0 0-1 0-1 0c0-1 0-1-1-2c0-1 0-2 0-3c-1-1-1-2-1-2c-1-3-1-3-3-5c0-1-1-1-1-2c0-1 1-2 1-3z"/><path fill="#a96c3f" d="m271 175c1 0 1 0 5 2c0 2 0 3 0 5c-6-1-11-2-17-5c3-1 5-1 8 0c0 1 0 1 0 2c1 0 2 0 3 0c0-1 1-3 1-4z"/><path fill="#b17846" d="m52 172c4 1 7 2 11 4c0 0 0 0-2 1c-1 3-1 3-1 5c-1 0-1 0-5-2c0-1 0-2 0-2c0-3 0-3-1-5c-1 0-1-1-2-1z"/><path fill="#170d0c" d="m74 138c0 1 1 2 1 3c1 0 2-1 3-1c4-1 7-1 11-1c-1 3-3 3-6 4c-1 0-2 1-3 1c-3 1-5 1-8 1c1-1 1-1 2-2c0-3 0-3 0-5z"/><path fill="#130e0e" d="m240 254c3 0 6 0 8 0c1 0 1 0 3 0c6 0 6 0 8 1c0 1 0 1 0 2c-1 0-3 0-4 0c0 1 0 1 0 2c-2 0-4-1-6-1c-1-1-2-1-3-1c-3-1-3-1-6-3z"/><path fill="#2d262a" d="m132 220c5 2 10 4 15 6c-1 1-1 1-2 2c-1 0-1-1-2-1c-4-1-6-1-10-1c0-1-1-2-1-3c-1 0-1-1-2-1c1 0 1 0 2 0c0-1 0-1 0-2z"/><path fill="#ae6a55" d="m133 212c6 0 10 0 15 3c1 1 1 1 2 2c-7 1-11-1-17-4c0 0 0-1 0-1z"/><path fill="#713f2a" d="m359 211c2 0 4 0 6 0c0 0 0 0-2 1c0 1 0 2 0 3c-2 0-4 1-6 1c0 1-1 2-1 3c1 0 2 1 3 1c-2 0-2 0-5 0c-1-1-1-1-2-2c0-2 0-2 1-4c2 0 4 0 6 0c0-1 0-2 0-3z"/><path fill="#d09658" d="m96.6 194.2c2 1 2 1 4 3c-2 2-2 2-5 4c-3-1-3-1-6-2c0-2 0-2 2-4c2-1 2-1 5-1z"/><path fill="#9f663e" d="m28 168c3 0 5 0 8 0c0 1 0 1 0 2c1 0 2-1 3-1c2 1 3 2 5 3c2 1 2 1 5 2c1 0 1 0 3 1c0 1 1 2 1 3c-4-1-8-3-12-4c-4-2-8-4-13-5c0 0 0-1 0-1z"/><path fill="#ad7042" d="m21 164c3 0 3 0 7 0c1 0 2 1 3 1c1 0 1 0 3 0c0 0 0 0-2 1c0 1 0 1 0 2c-5 0-9 0-14 0c1-1 2-3 3-4z"/><path fill="#915832" d="m347 72c2 0 3 1 5 1c0 1 1 3 1 4c-1 1-3 2-4 3c-2-2-5-3-7-5c1 0 1-1 2-1c1 0 1 1 2 1c0-1 1-2 1-3z"/><path fill="#181721" d="m156 274c6 1 12 2 18 4c0 1-1 1-1 2c-6-1-12-2-18-4c0-1 1-1 1-2z"/><path fill="#b67849" d="m81 144c0 1 0 3 0 4c-3 1-7 3-10 4c1-5 1-5 3-7c3-1 3-1 7-1z"/><path fill="#8f2333" d="m341 215c3 1 4 2 5 4c1 3 1 5 0 8c-1 0-2-1-3-1c-1-2-1-2-1-4c0-1-1-2-1-3c0-2 0-2 0-4z"/><path fill="#cc945e" d="m26 162c0 1 0 1 0 2c-2 0-3 0-5 0c0 1-1 2-1 3c-2 1-2 1-4 2c0 0 0 0-2 0c-1 1-1 1-2 1c1-4 1-4 3-6c4-2 7-2 11-2z"/><path fill="#cb8d4f" d="m125 11c2 0 4 0 5 0c1 0 1 0 3 0c1 0 2 0 3 0c1 1 1 2 2 3c-3 3-4 3-8 3c0-1 0-2 0-3c-2 0-3-1-5-1c0-1 0-1 0-2z"/><path fill="#18161e" d="m307 301c8 0 16 0 25 0c0 0 0 1 0 1c-5 0-9 0-14 0c0 1 0 1 0 2c-4 0-7-1-11-1c0-1 0-1 0-2z"/><path fill="#9f693f" d="m97 11c1 0 1 0 5 2c-3 4-7 5-12 6c1-4 4-5 7-8z"/><path fill="#640e1e" d="m342 224c1 1 1 1 2 2c0 3 0 6 0 9c0 0 0 1-1 2c0 2 0 4 0 6c1 0 1 0 2 0c0-2 0-3 0-5c0 0 1 0 1 0c0 4 0 7-2 10c-1 0-1 0-2 0c0-8 0-16 0-24z"/><path fill="#8f403d" d="m167 221c4 0 7 0 10 2c1 0 1 0 2 0c0 1 0 1 0 2c1 2 1 2 2 3c0 2 0 3 0 5c1 0 1 1 2 1c-1 0-2 0-3 0c0-1 0-3 0-4c-1 0-1 0-2 0c-1-1-1-2-2-3c-3-3-5-4-9-5c0 0 0-1 0-1z"/><path fill="#e1af6d" d="m114 204c5 1 5 1 7 3c-1 0-1 0-2 0c0 1 0 1 0 2c-1 1-1 1-1 2c0 0 0 0-2 1c-3-1-3-1-5-3c1-2 2-3 3-5z"/><path fill="#d5a366" d="m110.6 201.2c2 1 2 1 4 3c0 2 0 2-2 4c-2 1-2 1-4 1c1-1 1-2 1-3c0-1 0-1-5-2c2-3 3-3 6-3z"/><path fill="#8c2431" d="m124 146c2 1 5 1 7 2c0 1 0 1 0 2c1 0 2-1 3-1c1 1 3 2 4 3c-5 0-10-1-15-1c0-2 1-3 1-5z"/><path fill="#b97745" d="m385 108c3 1 3 1 4 3c1 4 1 5-1 8c-2-3-4-5-6-8c1 0 1 0 2 0c0-1 1-2 1-3z"/><path fill="#753f28" d="m289 261c6 0 6 0 9 1c1 3 1 4 1 7c-1 0-2 0-3 0c0 0 0 0-1-2c-1-3-3-3-6-4c0-1 0-1 0-2z"/><path fill="#180507" d="m335 249c0 0 1 0 1 0c0 2 0 4 0 6c1 0 1 0 2 0c0 3-1 5-2 7c-2 1-2 1-4 1c-1 0-3-1-4-1c1 0 1 0 2-1c3-2 3-3 4-7c0-1 0-2 0-3c1 0 1-1 1-2z"/><path fill="#962438" d="m170 218c2 0 2 0 11 3c0 1 0 1 0 2c1 0 2 0 3 0c0 1 0 1 0 2c-1 0-3 0-4 0c-1 0-1 0-3-1c-2 0-2 0-4-2c-2 0-4-1-6-1c1 0 2-1 3-1c0-1 0-1 0-2z"/><path fill="#231918" d="m181 143c6 1 11 1 17 3c0 1 0 1 0 2c-6 0-11-1-17-3c0-1 0-1 0-2z"/><path fill="#b16e40" d="m105 139c-1 2-1 3-2 5c-2 0-5 0-7 0c0-1-1-3-1-4c3-1 6-1 10-1z"/><path fill="#c48448" d="m281.1 36.4c0 0 0 0 3 1c0 0 1 0 2 1c-3 2-3 2-5 2c-2-2-2-2-3-3c0 1 1 2 1 4c-4-1-7-2-11-2c4-1 4-1 6 0c0-1 0-2 0-3c3-2 4-1 7 0z"/><path fill="#b17744" d="m123 13c2 0 5 0 7 0c0 1 1 1 1 2c0 1-1 1-1 2c2 0 4 0 6 0c0 0 0 1 0 1c-5 0-9 0-14 0c0-3 0-3 1-5z"/><path fill="#d1a061" d="m161 11c1 0 1 0 2 0c0 1 0 2 0 3c3 0 6 0 9 0c-1 1-2 1-3 2c1 1 2 1 3 2c-4 0-7 0-11 0c-1-3-1-4 0-7z"/><path fill="#5f1124" d="m351 250c1 0 1 0 2 0c0 6-2 10-5 15c-1 0-2 0-3 0c0 0 1-1 1-2c2-4 4-8 5-13z"/><path fill="#783731" d="m370 221c2 0 3 0 5 0c0 2 1 5 1 7c-2 0-5-1-7-1c0-1-1-1-1-2c1 0 1 0 2 0c0-1 0-3 0-4z"/><path fill="#510d24" d="m79 152c-1 4-4 5-7 8c-1 0-2 0-3 0c0-2 0-2 1-5c6-3 6-3 9-3z"/><path fill="#dbbf8c" d="m171 143c2 0 3 1 5 1c0 2 1 3 1 5c-4 0-7 0-11 0c1-1 2-1 3-2c0-1 0-1 0-2c1 0 1 0 2 0c0-1 0-1 0-2z"/><path fill="#d1a165" d="m242 16c1 0 1 0 5 2c-1 0-1 1-2 1c-2 1-2 1-3 3c1 0 2-1 3-1c0 1 0 1 0 2c1 0 1 1 2 1c-4-1-7-1-11-2c0-1 0-1 0-2c3-2 3-2 6-2c0-1 0-1 0-2z"/><path fill="#6e2f25" d="m307 260c3 0 5 0 8 0c-1 2-1 2-4 4c-4 0-7 0-11 0c0-1 0-1 0-2c2 0 5 0 7 0c0-1 0-1 0-2z"/><path fill="#1c1c27" d="m178 242c3 1 6 2 9 3c0 2 1 3 1 5c-3-1-6-2-9-3c0-2-1-3-1-5z"/><path fill="#130e10" d="m182 227c1 0 1 0 2 0c0 1 0 2 0 3c2 0 3 1 5 1c0 2 1 3 1 5c-2 0-5-1-7-1c-1-3-1-5-1-8z"/><path fill="#933d3a" d="m196 158c3 0 7 1 10 2c3 0 5 0 8 1c0 0 1 0 2 0c2 0 3 0 5 0c0 0 0 1 0 1c-3 0-7 0-10 0c-1 0-1 0-3 0c-7 0-7 0-11-2c0-1-1-1-1-2z"/><path fill="#cb8747" d="m116 139c5 0 9 0 14 0c-1 0-2 1-3 1c0 1 0 1 0 2c-4 0-8 0-12 0c0-1 1-2 1-3z"/><path fill="#b77b4b" d="m358 286c0 1 1 1 1 2c1 0 1 0 2 0c0-1 0-1 0-2c6 1 6 1 8 3c0 0 0 0 1 1c-1 0-1 0-2 0c0 1-1 1-1 2c-3-1-6-2-9-3c0-1 0-2 0-3z"/><path fill="#4b1119" d="m370 227c1 0 1 0 5 1c0 2 0 4 0 5c0 1 0 2 0 3c-1 1-1 2-1 3c-1 1-2 1-3 2c0-4 1-9 1-13c-1 0-1-1-2-1z"/><path fill="#430a1a" d="m338 219c0 5 0 10 0 15c-1 0-2 1-3 1c-1-2-1-5-2-7c1 0 3 1 4 1c-1-3-1-6-2-9c2-1 2-1 3-1z"/><path fill="#510b1c" d="m361 222c1 0 3 0 4 0c0 3 0 3 0 6c-2 2-2 2-5 4c-1-4 0-6 1-10z"/><path fill="#b57c4c" d="m320.6 46.6c4 0 8 2 11 4c0 1 0 2 0 2c-5-1-10-2-16-4c2-2 2-2 5-2z"/><path fill="#cf975b" d="m239 24c1 1 3 1 4 2c0 1-1 3-1 4c-4-1-8-1-12-2c1-1 1-1 2-2c3 0 3 0 6 1c0-1 1-2 1-3z"/><path fill="#e6b977" d="m176 12c1 0 1 0 2 0c0 1 1 1 1 2c3 1 3 1 5 1c0 1-1 3-1 4c-3 0-6-1-9-1c0-1 0-2 0-3c1 0 1 0 2 0c0-1 0-2 0-3z"/><path fill="#090001" d="m338 240c0 0 1 0 1 0c0 5 0 9 0 14c-1 0-2 1-3 1c0-6 0-10 2-15z"/><path fill="#f1c682" d="m142 217c2 1 5 2 7 3c0 1-1 1-1 2c-1 0-2 0-3 0c0 1 0 1 0 2c-1 0-3-1-4-1c0-2-1-3-1-5c1 0 1-1 2-1z"/><path fill="#8a4338" d="m333 204c1 0 1 0 2 0c3 8 3 8 3 13c-1 0-1 0-2 0c-1-2-1-3-2-5c0-1-1-2-1-3c-1-2-1-2 0-5z"/><path fill="#b4743f" d="m372 91c6 4 6 4 7 7c0 2 0 2-1 4c-2 1-2 1-3 1c0-2 0-5 0-7c-1 0-3-1-4-1c0-1 1-3 1-4z"/><path fill="#ca985e" d="m138 4c3 0 6 0 9 0c0 1 0 1 0 2c1 0 3 0 4 0c0 1 0 1 0 2c1 0 2 1 3 1c-6-1-11-2-16-3c0-1 0-1 0-2z"/><path fill="#d1ab6d" d="m161 4c2 0 4 0 6 0c1 2 1 5 2 7c-1 0-3 0-4 0c0-1 0-1 0-2c-1 0-2-1-3-1c-1-2-1-2-1-4z"/><path fill="#682623" d="m349 268c3 2 6 3 9 6c0 1 0 3 0 4c-4-2-6-4-9-7c0-1 0-2 0-3z"/><path fill="#170208" d="m287 209c0 0 1 0 1 0c0 2 0 3 0 5c1 0 1 0 2 0c0 2 0 5 0 7c0 0 0 0-2 1c0-2 0-3 0-5c-1 0-2 1-3 1c1-8 1-8 2-9z"/><path fill="#261b16" d="m135 136c4 0 9 1 13 1c0 1 0 1 0 2c-6 0-11 0-17 0c1 0 3-1 4-1c0-1 0-1 0-2z"/><path fill="#090202" d="m361 276c0 2 0 3 0 5c-3 1-4 1-7 0c-1 0-1-1-2-1c0-1 0-1 0-2c7-2 7-2 9-2z"/><path fill="#a8693d" d="m325 276c3 0 5 1 8 1c0 1 1 2 1 3c-1 0-1 0-2 0c-2 1-2 1-4 3c-1-1-1-1-3-3c0-1 0-3 0-4z"/><path fill="#5e1425" d="m359 264c0 1 1 2 1 3c1 0 1 1 2 1c-1 3-2 6-3 9c0-1-1-2-1-3c-1 0-2-1-3-1c1 0 1-1 2-1c1-2 1-2 1-4c0-1 0-2 1-2c0-1 0-1 0-2z"/><path fill="#3e0410" d="m130 186c3 0 7 1 10 1c0 1 1 2 1 3c-3 0-7 0-10 0c0-1-1-3-1-4z"/><path fill="#1e0c09" d="m96 191c4 1 6 2 9 5c-1 1-1 1-2 2c-3-2-7-3-10-5c1-1 2-1 3-2z"/><path fill="#ae6d3c" d="m119 14c0 1 1 3 1 4c-1 0-3 0-4 0c-1 0-1 0-3 0c-2 0-3-1-5-3c4-1 7-1 11-1z"/><path fill="#b57949" d="m91 12c1 0 1 1 2 1c-4 3-8 6-13 8c-1 0-1-1-2-1c4-4 8-6 13-8z"/><path fill="#dbb77d" d="m223 12c0 0 0 1 0 1c-2 1-4 1-6 2c0 1 0 1 0 2c-1 0-1 0-6-1c2-7 6-5 12-4z"/><path fill="#27201d" d="m358 289c6 1 10 2 15 6c-1 0-2 1-3 1c-1-1-2-1-3-2c-2-1-3-1-5-2c0 0-1 0-2 0c-1-1-1-1-2-1c0-1 0-1 0-2z"/><path fill="#6a503c" d="m6 165c2 0 3 0 5 0c1 2 1 4 2 6c-4 0-6-1-8-4c0-1 1-1 1-2z"/><path fill="#b0794c" d="m373 83c2 0 2 0 4 2c1 3 1 5 2 8c-1 0-2 0-3 0c-3-3-3-6-3-10z"/><path fill="#0d0507" d="m373 296c1 0 2 1 3 1c-3 5-7 6-13 8c0-1 0-1 0-2c0 0 0 0 2-1c0 0 1 0 2-1c1 0 1 0 2-1c2-1 2-1 4-4z"/><path fill="#140a06" d="m335 274c1 1 2 1 3 2c0 1 0 1 0 2c-1 0-3 0-4 0c-1 0-2-1-3-1c-2 0-4-1-6-2c4-1 6-1 10-1z"/><path fill="#deaa6f" d="m172 230c2 1 4 1 6 2c0 1 1 1 1 2c-1 0-2 0-3 0c0 1 1 2 1 3c1 0 1 1 2 1c0 1 0 1 0 2c-2 0-3-1-5-1c0-2 0-5 0-7c-1 0-1 0-2 0c0-1 0-1 0-2z"/><path fill="#771627" d="m299 197c0 0 1 0 1 0c0 2 0 4 0 6c0 1 0 1 0 4c0 3-1 5-3 7c0-6 0-11 2-17z"/><path fill="#891f32" d="m189 200c2 0 3 1 5 1c0 1 1 2 1 3c-1 0-3 0-4 0c-2 1-4 1-6 2c0-1 0-1 0-2c-1 0-2-1-3-1c0 0 0 0 3 0c0 0 0 0 3-1c0-1 1-1 1-2z"/><path fill="#a3293d" d="m172 197c2 0 5 1 7 1c0 1 1 2 1 3c-3 0-7 0-10 0c1-1 1-3 2-4z"/><path fill="#972538" d="m145 186c1 0 2 0 3 0c1 2 1 4 2 6c-4 3-4 3-7 3c0-1 0-1 0-2c1 0 1-1 2-1c1-2 1-2 1-4c-1 0-1-1-2-1c0 0 1-1 1-1z"/><path fill="#974a3c" d="m124 144c3 0 3 0 7 0c1 1 1 1 2 2c2 0 4 1 6 1c0 0 0 1 0 1c-11 1-11 1-15-3c0 0 0-1 0-1z"/><path fill="#3d0a0d" d="m348 269c3 3 6 6 8 9c-3 0-5-1-7-3c-2-2-2-2-2-4c0-1 1-1 1-2z"/><path fill="#a36a3d" d="m290 270c1 0 2 1 3 1c0 2 1 3 1 5c-4-1-7-1-11-2c1 0 3-1 4-1c2-2 2-2 3-3z"/><path fill="#330410" d="m358 242c1 0 2 1 3 1c0 3 0 3 0 6c-3 2-3 2-5 4c0-1 0-1 0-2c1-3 2-6 2-9z"/><path fill="#7a1f2b" d="m366 223c4 3 4 3 4 7c0 0 0 1 0 2c-1 0-3 0-4 0c0-3 0-6 0-9z"/><path fill="#e3965e" d="m307 178c1 0 1 0 4 1c0 2 1 4 1 6c-2-1-4-1-6-2c0-2 1-3 1-5z"/><path fill="#ba7a47" d="m248 165c1 0 1 1 2 1c0 2-1 4-1 6c-3-1-6-2-9-3c1-1 2-2 3-3c3 0 3 0 5 1c0-1 0-1 0-2z"/><path fill="#1c1b2b" d="m87 96c1 0 1 1 2 1c0 2-1 4-1 7c0 1 0 2 0 3c-1 4-1 7-2 10c0 0-1 0-1 0c0-3 0-7 0-10c0-1 1-2 1-3c0-1 0-2 0-3c0 0 0-1 0-2c0-2 0-2 1-3z"/><path fill="#905935" d="m317 274c1 0 2 1 3 1c0 1 0 1 0 2c1 1 2 1 3 2c-1 0-3 0-4 0c0 1 0 1 0 2c1 0 1 1 2 1c-3 0-5-1-8-1c1 0 3-1 4-1c0-1-1-2-1-3c0-1 1-2 1-3z"/><path fill="#a5663b" d="m315 274c1 0 1 0 2 0c0 2 0 4 0 6c-3 0-5-1-8-1c0-1 0-1 0-2c2 0 4-1 6-1c0-1 0-1 0-2z"/><path fill="#1d1c22" d="m257 267c0 1 0 1 0 2c1 0 2 0 3 0c-1 1-1 3-2 4c-1 0-1 0-9-2c5-4 5-4 8-4z"/><path fill="#3f0515" d="m361 243c0 0 1 0 1 0c0 5 0 8-3 12c0 0 0 0-2 1c-1 1-1 2-2 3c0-5 2-7 5-10c1-3 1-3 1-6z"/><path fill="#945b35" d="m284 182c0 1-1 2-1 3c0 1 1 1 1 2c-6-1-6-1-8-3c0 0-1-1-1-1c7-2 7-2 9-1z"/><path fill="#a2724a" d="m392 113c3 1 5 2 7 4c0 1 0 2 0 3c-4-1-5-2-8-5c0-1 1-1 1-2z"/><path fill="#1f1310" d="m362 90c5 4 9 8 13 12c0 1-1 1-1 2c0 0 0 0-2-2c-1-1-1-2-2-2c-1-1-2-2-3-3c-2-2-2-2-5-3c0-1 0-3 0-4z"/><path fill="#c7884d" d="m237 257c2 0 5 0 7 0c0 1 0 3 0 4c-2 0-5 0-7 0c0-1-1-1-1-2c0-1 1-1 1-2z"/><path fill="#c8955d" d="m181 240c1 0 1 0 9 2c0 1 0 1 0 2c2 0 3 0 5 0c0 1 1 2 1 3c-5-2-10-3-15-5c0-1 0-1 0-2z"/><path fill="#2a050b" d="m370 228c1 0 1 0 2 0c0 8 0 8-1 11c-1 0-2 0-3 0c1-4 1-7 2-11z"/><path fill="#5a131e" d="m353 221c2 0 5 0 7 0c0 1 0 3 0 4c-2 0-5 0-7 0c0-1 0-3 0-4z"/><path fill="#c0754a" d="m357 215c1 0 1 0 6 1c0 1-1 3-1 4c-1 0-1 0-6-1c0-1 1-3 1-4z"/><path fill="#8a4830" d="m326 191c2 2 3 3 3 6c0 0 0 0-2 3c-2-2-3-4-5-6c1 0 3-1 4-1c0-1 0-1 0-2z"/><path fill="#1c0004" d="m87 185c5 0 9 0 14 0c0 1 0 1 0 2c-3 0-5 0-8 0c0 1-1 1-1 2c-2-1-3-3-5-4z"/><path fill="#a85f48" d="m131 144c1 0 3 0 4 0c1 0 2 1 3 1c2 0 4 1 6 2c0 0 0 1 0 1c-2 0-4 0-5 0c-1 0-2 0-3 0c-1-1-2-1-3-1c-1-1-1-2-2-3z"/><path fill="#cb9f62" d="m147 4c2 0 5 0 7 0c0 1 0 1 0 2c1 0 2 1 3 1c0 1 0 1 0 2c-1 0-1 0-6-1c0-1 0-1 0-2c-1 0-3 0-4 0c0-1 0-1 0-2z"/><path fill="#724b32" d="m363 278c2 1 4 1 6 2c-1 1-1 3-2 4c-2 0-3 0-5 0c0-2 0-3 0-5c0 0 1-1 1-1z"/><path fill="#351613" d="m364 272c1 0 1 1 2 1c0 1-1 1-1 2c-1 3-2 5-2 8c-1 0-3-1-4-1c1-1 1-3 2-4c0-1 1-2 1-3c1-2 1-2 2-3z"/><path fill="#200708" d="m282 189c4 1 6 1 9 4c0 2-1 5-1 7c0 0-1 0-1 0c0-2 0-4 0-6c-1 0-2-1-2-1c-3-1-3-1-5-4z"/><path fill="#bf9058" d="m83 188c3 1 5 2 8 4c-2 0-3-1-5-1c0 1 0 1 0 2c-1 0-1 0-2 0c0 1 0 1 0 2c-1 0-1 0-2 0c0-2 1-5 1-7z"/><path fill="#a4293b" d="m152 151c4 0 7 0 11 0c0 0 0 0-3 3c-1 0-2 0-3 0c-1 0-3 1-4 1c0-1-1-3-1-4z"/><path fill="#c2854a" d="m383 103c1 1 3 3 4 4c-1 1-2 3-3 4c-1 0-2-1-3-1c0-2 0-4 0-6c1 0 1-1 2-1z"/><path fill="#ae7547" d="m341 58c4 1 7 3 10 6c1 0 2 1 3 2c1 0 1 1 2 1c0 0 0 0-2 1c-3-1-3-1-5-3c-1-1-2-1-3-2c-3-2-3-2-5-5z"/><path fill="#1f1717" d="m296 51c6 0 9 2 14 5c0 1-1 1-1 2c-4-2-9-4-13-6c0 0 0-1 0-1z"/><path fill="#c89359" d="m283 31c-1 1-2 3-3 4c2 1 4 1 6 2c-3 1-3 1-6 0c-2-1-2-1-3-4c0 0 0-1 0-2c4-1 4-1 6 0z"/><path fill="#bf8a51" d="m249 28c0 1 1 3 1 4c2 0 3 0 5 0c0 1 0 1 0 2c-4-1-9-2-13-3c4-3 4-3 7-3z"/><path fill="#f0c383" d="m178 12c3 0 5 1 8 1c0 1-1 3-1 4c-2 0-4 0-6 0c0-2-1-3-1-5z"/><path fill="#be7d49" d="m275 265c0 1 1 1 1 2c2 1 2 1 4 1c-1 1-1 1-3 3c-3 0-3 0-5 0c0-1-1-1-1-2c1-1 3-3 4-4z"/><path fill="#1d1008" d="m264.2 257.9c1 0 1 0 4 0c0 1 0 3 0 4c-1 0-3 0-4 0c0 0 0 0-2-1c-2 0-2 0-5-2c3-1 4-1 7-1z"/><path fill="#28201f" d="m203 250c2 0 3 1 5 1c0 1 0 1 3 1c2 1 2 1 5 3c-2 0-3 0-5 0c0 0-1-1-1-1c-2 0-3 0-5-1c-1 0-1 0-3 0c0 0 0 0-2 0c1 0 2-1 3-1c0-1 0-1 0-2z"/><path fill="#5e0e1c" d="m318 192c4 2 4 2 5 5c0 0 1 1 1 2c-1 1-3 3-4 4c-1-4-1-7-2-11z"/><path fill="#633a23" d="m289 185c1 0 2 1 3 1c0 2 0 4 0 6c-2 0-3-1-5-1c1-2 1-4 2-6z"/><path fill="#d9b07a" d="m154 141c3 0 6 0 9 0c-1 0-1 0-4 2c0 1 0 3 0 4c-2 0-3 0-5 0c1-1 1-3 2-4c-1 0-1 0-2 0c0-1 0-1 0-2z"/><path fill="#684e39" d="m374 291c2 0 5 1 7 1c0 1-1 2-1 3c-2 0-5 1-7 1c0-2 1-3 1-5z"/><path fill="#592d1b" d="m283 257c1 0 2 1 3 1c0 1 0 1 0 2c-1 0-1 0-2 0c0 1 0 3 0 4c-3 1-6 1-9 1c0 0 0-1 0-1c2 0 4-1 6-1c1-2 1-4 2-6z"/><path fill="#d19355" d="m224 249c0 1 1 2 1 3c-1 0-1 0-2 0c0 1-1 2-1 3c-1 0-3 0-4 0c0-1 0-1 0-2c1 0 1 0 2 0c0-1-1-2-1-3c2-1 2-1 5-1z"/><path fill="#bf8163" d="m143 217c2 0 5 0 7 0c0 1 0 2 0 3c2 0 5 1 7 1c0 1 0 1 0 2c-5-2-9-3-14-5c0 0 0-1 0-1z"/><path fill="#4b081b" d="m278 189c1 0 3 1 4 1c0 1 1 3 1 4c-1 0-2 1-3 1c-2-1-2-1-4-3c1 0 1 0 2 0c0-1 0-2 0-3z"/><path fill="#141420" d="m32 187c2 0 4 0 7 0c1 0 2 0 3 0c4 0 7 1 10 2c0 0 0 1 0 1c-2 0-5 0-7 0c0 0-1-1-1-1c-2 0-4 0-6-1c-1 0-2 0-3 0c-1 0-2 0-3 0c0 0 0-1 0-1z"/><path fill="#2d090d" d="m273 184c4 1 7 2 11 4c-1 1-2 1-3 2c-3-1-5-3-8-4c0-1 0-1 0-2z"/><path fill="#5b0b1d" d="m102 151c5 0 11 0 16 0c0 1 0 1 0 2c-5 2-11 0-16-1c0 0 0-1 0-1z"/><path fill="#e1ab71" d="m187 146c1 0 3 1 4 1c0 2-1 4-1 6c-2 0-5-1-7-1c0 0 1-1 1-1c2-2 2-2 3-5z"/><path fill="#5b4232" d="m397 123c0 1-1 3-1 4c-2-1-4-1-6-2c0-1-1-1-1-2c3-1 5-1 8 0z"/><path fill="#e6a359" d="m230 23c3 0 3 0 7 0c1 1 1 1 2 2c0 1-1 1-1 2c-2 0-5-1-7-1c0-1-1-2-1-3z"/><path fill="#281b17" d="m111.8 19.9c1 0 2 0 2 0c1 0 2 0 2 0c-2 3-4 3-7 3c-4 0-4 0-6-2c3-1 6-1 9-1z"/><path fill="#0b0708" d="m259 255c1 0 1 0 7 3c-4 1-7 1-11 1c0-1 0-1 0-2c1 0 3 0 4 0c0-1 0-1 0-2z"/><path fill="#bf874c" d="m218 247c1 1 3 1 4 2c-1 1-1 3-2 4c-1 0-1 0-2 0c0 1 0 1 0 2c-2 0-3-1-5-1c1 0 2-1 3-1c0-1 0-1 0-2c1 0 1 0 2 0c0-1 0-3 0-4z"/><path fill="#06050d" d="m148 234c3 1 6 2 9 3c0 0 0 0-2 1c0 1-1 1-1 2c-2-1-4-1-6-2c0-1 0-3 0-4z"/><path fill="#982e3a" d="m147 210c0 1 1 3 1 4c-3-1-7-1-10-2c3-2 5-2 9-2z"/><path fill="#932236" d="m183 196c1 0 1 1 2 1c0 1-1 1-1 2c2 0 3 1 5 1c0 1-1 2-1 3c-2 0-4 0-6 0c1-1 1-1 2-2c-1 0-1-1-2-1c0-1 1-3 1-4z"/><path fill="#651127" d="m104 178c0 0 0 0-3 3c1 0 1 0 6 1c0 0 0 1 0 1c-3 0-5 0-8 0c0-2-1-3-1-5c2-1 3-1 6 0z"/><path fill="#100a0c" d="m277 175c1 0 2 1 2 1c2 1 4 1 6 2c0 1 0 2 0 3c-5-1-5-1-7-2c-1-2-1-2-1-4z"/><path fill="#190e0c" d="m300 172c3 0 5 0 8 0c0 1 0 1-3 4c1 0 3 0 4 0c0 1-1 1-1 2c-1 0-1 0-6-1c0-1 0-2 0-3c-1-1-1-1-2-2z"/><path fill="#190203" d="m68 152c1 0 2 1 3 1c0 1-1 1-1 2c-1 2-2 5-2 8c-2-3-2-3-2-7c1-3 1-3 2-4z"/><path fill="#c28c54" d="m282 31c2 0 4 0 6 0c0 1-1 3-1 4c-2 0-5 0-7 0c1-1 1-3 2-4z"/><path fill="#8a6748" d="m380 289c0 1 0 2 0 3c-2 0-5-1-7-1c0-1 0-2 0-3c3-1 4-1 7 1z"/><path fill="#130308" d="m244 246c4 1 6 1 9 4c0 1 0 1 0 2c-2 0-5-1-7-1c1 0 1-1 2-1c-1-2-1-2-4-4z"/><path fill="#070202" d="m239 246c3 0 5 1 8 1c0 1 1 2 1 3c-3 0-3 0-6 0c-2-2-2-2-3-4z"/><path fill="#14121b" d="m64 240c5 1 8 3 12 5c-3 1-3 1-5 0c-1 0-2-1-3-1c0-1-1-1-2-2c-1 0-1-1-2-1c0 0 0-1 0-1z"/><path fill="#85192c" d="m298 215c1 0 1 0 2 0c0 2-1 4-1 5c0 1 0 2 0 3c-1 3-1 3-3 5c0-5 0-8 2-13z"/><path fill="#4a1b1d" d="m343 215c3 0 6 0 9 0c0 1-1 3-1 4c-2 0-4 0-6 0c-1-1-1-3-2-4z"/><path fill="#871d31" d="m185 196c3 0 7 0 10 0c0 1 0 2 0 3c-3 0-5-1-8-1c0 1-1 1-1 2c-1 0-1-1-2-1c0-1 1-2 1-3z"/><path fill="#871b2e" d="m141 191c0 1 1 3 1 4c-6 0-6 0-8-1c0-1 0-1 0-2c1 0 1 0 7-1z"/><path fill="#a1383d" d="m305 183c5 1 5 1 7 3c0 1 0 2 0 3c-1 0-1 0-2 0c0-1-1-1-1-2c-1 0-2-1-3-1c0 1-1 1-1 2c0-2 0-3 0-5z"/><path fill="#a52c3b" d="m185 156c3 0 6 1 9 1c0 0 0 1 0 1c-5 1-9 1-14 1c0 0 0-1 0-1c2 0 3 0 5 0c0-1 0-1 0-2z"/><path fill="#620e22" d="m95 148c3 0 5 0 8 0c0 1-1 2-1 3c-2 0-5 0-7 0c0-1 0-2 0-3z"/><path fill="#af7b4e" d="m390 110c3 1 5 1 8 2c0 1 1 3 1 4c-3-1-5-1-8-2c0-1-1-3-1-4z"/><path fill="#a66b40" d="m372 94c0 1 1 1 1 2c1 0 1 0 2 0c0 2 0 4 0 6c-2-1-3-3-5-4c1-1 1-3 2-4z"/><path fill="#a16332" d="m364 88c2 0 4 0 6 0c0 1 0 3 0 4c-2 0-3-1-5-1c0-1-1-2-1-3z"/><path fill="#a26237" d="m325 58c2 0 3 1 5 1c-1 1-2 3-3 4c-2 0-3-1-5-1c1 0 1-1 2-1c0-1 1-2 1-3z"/><path fill="#b77549" d="m82 25c3 1 4 1 6 3c-5 3-5 3-7 3c0-2 1-4 1-6z"/><path fill="#bd8550" d="m122 5c4 0 6 0 9 2c0 1 0 1 0 2c-2 0-4 0-6 0c0-1 0-1 0-2c-1 0-2 0-3 0c0-1 0-1 0-2z"/><path fill="#bf7f40" d="m262 262c0 1 0 1-3 5c0-1-1-1-1-2c-1 0-2 0-3 0c0-1-1-2-1-3c6-1 6-1 8 0z"/><path fill="#6b172d" d="m362 258c0 0 1 0 1 0c0 3 0 5 0 8c-1 0-2 1-3 1c0-6 0-6 2-9z"/><path fill="#7e252a" d="m295 254c1 2 1 2 2 4c0 1-1 1-1 2c-1 0-1 0-6-1c1-3 1-3 3-4c1 0 1-1 2-1z"/><path fill="#f1b46a" d="m151 224c3 0 3 0 6 1c1 1 1 2 2 3c-4 0-5 0-8-2c0-1 0-1 0-2z"/><path fill="#3e2e27" d="m5 168c1 0 1 0 7 3c0 1-1 1-1 2c-2 0-4 0-6 0c0-1-1-2-1-3c0-1 1-1 1-2z"/><path fill="#ca9b5e" d="m199 149c1 0 1 0 9 2c0 1-1 1-1 2c-1 0-1 0-2 0c0-1 0-1 0-2c-1 0-1 1-2 1c-2 1-2 1-5 0c0-1 1-2 1-3z"/><path fill="#eed29b" d="m165 143c2 0 4 0 6 0c0 1 0 1 0 2c-1 0-1 0-2 0c0 1 1 2 1 3c-2 0-3 0-5 0c0-2 0-3 0-5z"/><path fill="#241514" d="m68 137c1 0 2 0 3 0c0 2 0 3 0 5c-1 0-1 0-4 2c0-2 1-5 1-7z"/><path fill="#513629" d="m77.6 27.9c0 0 0 0 2 0c1 1 2 3 2 4c-4 0-4 0-6-1c-1-1-1-1-2-2c1-1 1-1 4-1z"/><path fill="#21060a" d="m362 269c1 0 1 0 2 0c-1 3-1 6-2 9c0-1-1-1-1-2c-1 0-1-1-2-1c1-2 2-4 3-6z"/><path fill="#2f0511" d="m336 260c3 3 3 4 3 8c-1 0-1 0-5-2c1-2 1-4 2-6z"/><path fill="#4c0717" d="m325 254c1 0 1 0 2 0c-2 4-2 4-3 5c-2 0-4 0-6 0c0-1 0-1 0-2c0 0 0 0 3-1c3-1 3-1 4-2z"/><path fill="#db9e59" d="m194 242c2 0 5 1 7 1c0 0 0 0-2 1c0 1 0 2 0 3c-1 0-2 0-3 0c-1-2-1-3-2-5z"/><path fill="#080306" d="m201 233c2 0 2 0 4 1c1 0 2 0 2 0c1 1 1 1 2 1c0 1 0 1 0 2c-4 0-6 0-10-2c1-1 1-1 2-2z"/><path fill="#81182b" d="m346 226c0 3 0 5 0 8c-1 0-2 0-3 0c0-2 1-5 1-7c1 0 1-1 2-1z"/><path fill="#bb7852" d="m364 219c2 0 2 0 4 1c1 3 1 3 2 5c-2-1-2-1-5-2c-1-2-1-2-1-4z"/><path fill="#9a4e2f" d="m352 215c2 0 3 0 5 0c0 1-1 3-1 4c1 0 2 1 3 1c-2 0-2 0-5 0c-1-1-1-1-2-2c0-1 0-2 0-3z"/><path fill="#bf7d42" d="m64 180c1 0 1 0 5 2c0-1 0-1 0-2c1 0 1 1 2 1c1 2 1 2 1 4c-3-1-5-1-8-2c0-1 0-2 0-3z"/><path fill="#2d0a09" d="m250 174c7 1 7 1 10 3c0 1-1 1-1 2c-1-1-1-1-9-4c0 0 0-1 0-1z"/><path fill="#ad6d3f" d="m49 173c1 0 1 0 6 1c0 1 1 2 1 3c0 1-1 1-1 2c-1 0-1 0-2 0c0-1 0-1 0-2c-1-1-1-1-1-2c-1 0-2-1-3-1c0 0 0-1 0-1z"/><path fill="#6d462e" d="m56 167c1 0 1 0 4 2c0 2-1 3-1 5c-1 0-2-1-3-1c0-2 0-4 0-6z"/><path fill="#221615" d="m29 169c1 0 1 0 9 2c0 1 0 2 0 3c-3-1-6-2-9-3c0-1 0-1 0-2z"/><path fill="#140e10" d="m260 167c3 1 3 1 7 2c0 1 1 2 1 3c-3 0-3 0-6-1c-1-2-1-2-2-4z"/><path fill="#926c4a" d="m7 163c3 0 6 0 9 0c-1 1-3 3-4 4c-1 0-1 0-5-2c0-1 0-1 0-2z"/><path fill="#391310" d="m87 147c0 1 0 2 0 3c-2 0-4 1-6 1c0-1 0-1 0-2c-1 0-1-1-2-1c3-1 5-1 8-1z"/><path fill="#1c1917" d="m170 141c7 0 7 0 9 1c0 1 0 1 0 2c-3 0-6-1-9-1c0-1 0-1 0-2z"/><path fill="#c18b56" d="m289 31c2 1 2 1 10 4c0 1-1 1-1 2c-2 0-3-1-5-1c0-1 0-1 0-2c-1 0-3-1-4-1c0-1 0-1 0-2z"/><path fill="#bf7e43" d="m118 13c4 0 7 1 11 1c0 0 0 1 0 1c-2 0-5 1-7 1c0 1 0 1 0 2c-1 0-2-1-3-1c0-1-1-3-1-4z"/><path fill="#1a1923" d="m200 236c3 0 5 1 8 1c0 1 0 2 0 3c-3-1-5-1-8-2c0-1 0-1 0-2z"/><path fill="#340311" d="m330 227c1 0 2 1 3 1c0 2 1 3 1 5c0 0 0 0-2 1c-2-2-2-2-3-4c0-1 1-2 1-3z"/><path fill="#160107" d="m283 225c0 1 1 2 1 3c1 0 2 0 3 0c0 1 0 1 0 2c-1 0-2 1-3 1c0 1-1 1-1 2c-1 0-1 0-2 0c1-3 1-5 2-8z"/><path fill="#a0694d" d="m174 226c1 0 1 0 4 2c0 1 0 1 0 2c1 0 1 0 2 0c0 1 0 2 0 3c-2 0-2 0-4-1c-1-3-1-3-2-6z"/><path fill="#92553a" d="m366 211c0 2 0 5 0 7c-1 0-1 0-5-2c1 0 1-1 2-1c0-1 0-2 0-3c2-1 2-1 3-1z"/><path fill="#8b3331" d="m312 187c2 0 2 0 4 1c1 1 1 2 2 3c-2 0-5 1-7 1c0-2 1-3 1-5z"/><path fill="#500a1d" d="m274 186c1 1 3 1 4 2c-2 2-2 2-4 3c-3-1-3-1-6-2c4-1 4-1 6 0c0-1 0-2 0-3z"/><path fill="#50111c" d="m298 180c1 0 1 1 2 1c0 4 0 5-2 8c-1 1-1 1-2 2c1-7 1-7 2-11z"/><path fill="#24171a" d="m4 172c1 0 1 0 4 2c-2 5-2 5-4 6c0-3 0-5 0-8z"/><path fill="#261a17" d="m254 165c2 0 2 0 5 1c1 1 1 3 2 4c-3-1-6-2-9-3c1-1 1-1 2-2z"/><path fill="#c27e40" d="m109 139c2 0 5 0 7 0c0 1-1 2-1 3c-2 0-5 0-7 0c0-1 1-2 1-3z"/><path fill="#ac7240" d="m314 52c1 0 2 1 3 1c0 1-1 3-1 4c-2 0-5-1-7-1c0 0 0 0 2 0c1-1 1-1 2-1c0-1 1-2 1-3z"/><path fill="#b27743" d="m299 45c1 0 2 1 3 1c0 2-1 3-1 5c-2 0-3-1-5-1c1 0 1-1 2-1c1-2 1-2 1-4z"/><path fill="#925731" d="m347 283c2 0 3 0 5 0c1 2 1 3 2 5c-1 0-1 0-6-1c0-1 1-1 1-2c-1-1-1-1-2-2z"/><path fill="#12131a" d="m229.8 244.3c0 0 0 0 2 1c0 0 0 0-2 1c1 1 1 2 1 3c-2-1-5-2-8-2c3-3 4-3 7-3z"/><path fill="#271d14" d="m185 235c6 0 6 0 8 0c2 2 2 2 2 4c-3-1-7-2-10-3c0 0 0-1 0-1z"/><path fill="#6c1729" d="m193 226c2 1 4 1 6 2c0 1 1 1 1 2c-3 0-6-1-9-1c1 0 1-1 2-1c0-1 0-1 0-2z"/><path fill="#672a2b" d="m179 224c2 0 3 1 5 1c-1 3-1 5-2 8c0 0-1 0-1 0c-2-6-2-6-2-9z"/><path fill="#711325" d="m203 200c1 1 3 3 4 4c-3 1-3 1-5 0c-1 0-1-1-2-1c0-1 0-1 0-2c1 0 2-1 3-1z"/><path fill="#ac3342" d="m179 154c2 0 5 1 7 1c0 1-1 2-1 3c-2 0-3-1-5-1c0-1-1-2-1-3z"/><path fill="#1c1714" d="m199 147c3 0 5 1 8 1c0 1-1 2-1 3c-2-1-5-1-7-2c0-1 0-1 0-2z"/><path fill="#a86a3e" d="m91 141c0 2-1 3-1 5c-2 0-3-1-5-1c4-4 4-4 6-4z"/><path fill="#e19f59" d="m132 139c1 0 1 1 2 1c1 2 1 2 1 4c-2 0-4 0-6 0c0-1 0-1 0-2c1 0 1 0 2 0c0-1 1-2 1-3z"/><path fill="#201a1a" d="m159 139c3 0 6 1 9 1c0 1 0 1 0 2c-3 0-6-1-9-1c0-1 0-1 0-2z"/><path fill="#0e0807" d="m89 139c0 1-1 1-1 2c-2 0-5 1-7 1c0-1-1-1-1-2c3-1 6-1 9-1z"/><path fill="#b47541" d="m286 39c1 1 2 2 3 3c0 0 0 0-2 3c-2 0-3-1-5-1c1 0 2-1 3-1c1-2 1-2 1-4z"/><path fill="#df9e56" d="m243 25c1 0 1 0 4 1c-1 1-1 3-2 4c-1 0-2 0-3 0c0-2 1-3 1-5z"/><path fill="#9f6739" d="m355 282c1 0 3 1 4 1c0 3 0 3-2 6c-1 0-1-1-2-1c0-2 0-4 0-6z"/><path fill="#030205" d="m321 272c3 0 5 1 8 1c0 1-1 1-1 2c-2 0-4 0-6 0c0-1-1-2-1-3z"/><path fill="#23160f" d="m240 254c3 0 6 0 9 0c0 1 1 2 1 3c-3-1-7-1-10-2c0 0 0-1 0-1z"/><path fill="#4b091c" d="m333 228c1 0 3 1 4 1c0 2 0 4 0 6c-1 0-1 0-2 0c-1-2-1-5-2-7z"/><path fill="#8b2737" d="m351 224c1 0 2 1 3 1c0 2 0 5 0 7c-1 0-1 0-2 0c0-3-1-5-1-8z"/><path fill="#27212f" d="m143 227c2 0 4 0 6 0c-1 1-1 3-2 4c-1 0-3-1-4-1c0-1 0-2 0-3z"/><path fill="#e2bb7c" d="m139 218c2 2 2 3 3 6c-2-1-4-1-6-2c0-1 0-1 0-2c1-1 2-1 3-2z"/><path fill="#510b1c" d="m97 189c3 0 5 0 8 0c-2 2-3 3-5 4c-1-1-2-1-3-2c0-1 0-1 0-2z"/><path fill="#c3894d" d="m80 186c1 1 3 1 4 2c-1 1-1 3-2 4c-1-1-2-1-3-2c0-1 1-3 1-4z"/><path fill="#975535" d="m320 185c1 0 1 1 2 1c0 2-1 3-1 5c-1 0-2 0-3 0c0-3 0-3 2-6z"/><path fill="#c18b52" d="m74 183c1 0 1 0 4 2c-1 1-2 1-3 2c0-1-1-3-1-4zm-3 4c1 0 3 0 4 0c0 1 0 2 0 3c-1-1-3-1-4-2c0 0 0-1 0-1z"/><path fill="#b37b49" d="m62 183c2 0 5 1 7 1c0 1 0 1 0 2c1 0 2 1 3 1c0 0 0 0-2 1c-2-1-2-1-4-2c-1 0-2-1-2-1c-1 0-1-1-2-1c0 0 0-1 0-1z"/><path fill="#b86c56" d="m150 146c3 0 3 0 7 1c1 1 1 2 2 3c-2 0-5-1-7-1c0-1 0-1 0-2c-1 0-1-1-2-1z"/><path fill="#f0cc8e" d="m172 144c1 0 3 0 4 0c0 2 1 3 1 5c-1 0-3 0-4 0c0-2-1-3-1-5z"/><path fill="#5b3829" d="m71 145c2 0 2 0 4 1c-1 1-2 1-3 2c-1 2-1 2-1 4c-1 0-1 0-2 0c0-2 0-2 0-5c1-1 1-1 2-2z"/><path fill="#c79057" d="m306 46c1 0 3 1 4 1c1 1 2 1 3 1c2 1 2 1 3 3c-5 0-7-1-10-5z"/><path fill="#ad7447" d="m87 16c2 1 2 1 2 1zm-4 2c1 0 2 1 3 1c-2 2-4 3-7 3c0 0 0 0-2 0c2-2 4-3 6-4z"/><path fill="#cfbb89" d="m191 11c3 1 5 1 8 2c0 1-1 1-1 2c-2 0-5-1-7-1c0-1 0-2 0-3z"/><path fill="#a97a54" d="m371 282c2 1 2 1 5 3c0 1 0 1 0 2c-2 0-3-1-5-1c0-1 0-3 0-4z"/><path fill="#641e26" d="m354 272c1 1 3 1 4 2c0 1 0 3 0 4c-4-2-4-2-5-4c0-1 1-1 1-2z"/><path fill="#382723" d="m247 264c1 0 1 0 9 2c0 1-1 1-1 2c-3-1-5-1-8-2c0-1 0-1 0-2z"/><path fill="#4b121a" d="m338 213c1 0 1 0 5 1c0 0 0 0-2 1c0 2 1 4 1 6c-3-2-4-4-4-8z"/><path fill="#0f090b" d="m353 207c1 3 1 5 0 8c-1 0-1 0-2 0c0-1 0-1 0-2c-1 0-1-1-2-1c1-1 2-1 3-2c0-1 1-2 1-3z"/><path fill="#901e32" d="m148 202c1 0 1 1 2 1c0 1-1 1-1 2c-2 2-2 2-3 5c-1 0-2-1-3-1c4-6 4-6 5-7z"/><path fill="#e0a35e" d="m108 201c0 1 1 1 1 2c1 0 2 0 3 0c0 1 0 1 0 2c-2 0-4 0-6 0c0-1 0-2 0-3c1 0 1-1 2-1z"/><path fill="#c28b52" d="m93 193c0 0 0 0 2 1c0 0 0 0-2 1c0-1 0-1 0-2zm-4 2c1 0 2 1 3 1c-1 0-1 0-4 2c-1-1-3-2-4-3c2-1 2-1 5 0z"/><path fill="#0a040a" d="m363 182c1 2 1 2 1 4c0 0 0 0-2 3c-1 0-1 0-2 0c1-5 1-5 3-7z"/><path fill="#a2633e" d="m283 182c1 0 1 0 5 2c-1 1-2 2-3 3c-1-1-2-2-3-3c0-1 1-1 1-2z"/><path fill="#75182c" d="m228 168c2 0 3 0 5 0c0 1 1 2 1 3c-2 0-5-1-7-1c0-1 1-1 1-2z"/><path fill="#7d1b2f" d="m220 166c2 0 3 0 5 0c0 1 0 1 0 2c1 0 1 1 2 1c-2 0-5 0-7 0c0-1 0-2 0-3z"/><path fill="#e0a762" d="m207 152c1 0 3 0 4 0c0 1 1 2 1 3c0 1-1 1-1 2c-1 0-3-1-4-1c0-1 0-3 0-4z"/><path fill="#e0a565" d="m191 147c1 0 1 0 2 0c0 2 1 3 1 5c-1 0-3 1-4 1c0-2 1-4 1-6z"/><path fill="#1f1314" d="m352 82c4 2 6 4 8 8c-1-1-3-2-4-3c-1 0-1-1-2-1c-1-1-1-1-2-2c0-1 0-1 0-2z"/><path fill="#784f36" d="m75 25c2 0 3 0 5 0c0 1 1 3 1 4c-1 0-1 0-6-1c0-1 0-2 0-3z"/><path fill="#905c37" d="m100 22c-3 2-6 3-10 4c0-1 0-1 0-2c4-3 6-3 10-2z"/></g><g transform="scale(1.00000)"><path fill="#2a1b1a" d="m256 14c1 0 1 0 2 0c28 7 56 16 82 28c3 1 5 2 8 3c16 7 32 17 46 28c2 1 4 2 5 3c6 4 11 9 16 14c2 2 4 4 6 5c10 9 20 21 23 34c0 8-4 14-8 21c-16 25-27 53-35 81c0 0 0 0 2 1c6 3 12 7 15 13c2 8 0 16-2 24c-1 1-1 3-1 4c-1 1-1 2-1 3c-1 6-2 12-4 18c-1 5-2 10-3 15c0 0 0 0 2 1c5 3 11 6 14 12c1 4 1 8-1 12c-7 9-19 11-29 12c-70 6-154-15-248-40c-1 0-1 0-2-1c-20-6-39-13-58-22c0 0-1 0-2-1c-13-6-25-13-37-22c0 0-1-1-1-1c-3-2-6-5-9-7c-1-1-2-1-2-2c-15-12-28-31-30-51c-1-7 0-13 4-19c5-5 11-7 18-7c14 0 28 7 40 13c0-1 0-1 0-2c1-5 2-9 3-14c1-1 1-2 1-3c1-2 2-4 2-7c2-5 3-10 4-15c0-2 1-3 1-5c4-19 5-39 5-59c0-1 0-1 0-2c0-7 0-14 0-21c0-4 0-8 0-12c0-2 0-4 0-6c-1-8 0-13 5-19c4-4 8-6 13-8c1 0 2-1 2-1c48-17 106-9 154 2zm-164 12c-2 2-2 4-2 7c0 1 0 2 0 3c-1 0-3 0-4 0c0 1 0 1 0 2c0 37 0 74-7 111c0 1 0 1 0 2c0 1 0 2-1 4c0 2 0 4 0 6c1 0 2 1 3 1c0 1-1 1-1 2c-2 2-2 2-2 5c-1 0-3 0-4 0c-2 7-3 14-5 21c-1 0-2 0-3 0c0 1-1 2-1 3c-1 0-1-1-2-1c-31-15-31-15-44-11c-4 2-6 4-8 8c0 1 0 1 0 3c-1 0-2 0-3 0c-2 15 8 30 16 41c21 26 53 44 84 55c2 1 4 2 6 3c52 19 106 31 160 40c2 0 4 0 6 1c112 18 112 18 134 3c1-1 3-2 4-4c0-1 0-1 0-2c-1 0-1 0-2 0c0 0 0-1 0-1c0-5 0-5-2-7c-3-3-6-4-10-6c0-1 1-1 1-2c-1 0-2 0-3 0c1-6 2-12 4-17c2-8 4-17 5-25c1-4 2-8 3-12c0-2 0-5 0-7c-1 0-1 0-2 0c0 0 0-1 0-1c-1-6-4-8-8-11c-1-1-1-1-2-2c-2-1-3-1-5-2c3-31 20-67 37-93c2-2 2-2 2-4c-1 0-1 0-2 0c0 0 0 0 1-1c2-4 3-6 2-10c-14-38-65-63-99-79c-38-19-81-30-123-35c-1 0-1 0-2 0c-92-12-92-12-121 12z"/><path fill="#2a1b1a" d="m139 160c36 2 71 9 106 19c0 0 0 1 0 1c-7 1-12 1-19-1c-27-11-58-14-87-15c0-1 0-3 0-4z"/><path fill="#2a1b1a" d="m140 165c2 0 5 0 7 0c-1 1-1 1-2 2c-3 0-3 0-5-1c0 0 0-1 0-1z"/><path fill="#2a1b1a" d="m169 171c1 0 2 1 3 1c-1 5-1 5-1 6c0 0 0 0-2 1c0-3 0-5 0-8z"/><path fill="#2a1b1a" d="m204 177c3 0 6 1 9 1c0 0 0 1 0 1c-3 0-5 0-8 0c0-1-1-1-1-2z"/><path fill="#2a1b1a" d="m218 177c4 1 7 1 11 2c0 0 0 1 0 1c-1 0-3 0-4 0c-1 0-1 0-3-1c-2 0-2 0-4-2z"/><path fill="#2a1b1a" d="m199 205c0 3 0 5 0 8c-2-1-4-2-6-3c0-2 0-2 0-4c2-2 3-2 6-1z"/><path fill="#2a1b1a" d="m346 207c4 1 5 2 7 5c-3 0-5 0-8 0c0-2 1-3 1-5z"/><path fill="#2a1b1a" d="m157 208c8 1 15 2 23 4c1 0 2 0 3 1c4 1 8 2 11 3c1 0 2 0 3 0c0 0 1 0 1 1c3 0 5 0 8 0c0 1 0 1 1 5c-1 0-1 0-2 0c-16-4-32-6-48-8c0-2 0-4 0-6z"/><path fill="#2a1b1a" d="m166 219c0 0 0 0 3 2c0 2-1 3-1 5c-1 0-1-1-2-1c0-2 0-4 0-6z"/><path fill="#2a1b1a" d="m211 224c1 0 1 0 5 1c0 1 0 1 0 2c-2 0-3-1-5-1c0-1 0-1 0-2z"/><path fill="#2a1b1a" d="m147 235c6-1 10 0 16 3c6 3 12 5 19 6c0 0 0 0 1 1c3 0 7 1 10 2c2 0 4 1 6 1c2 1 4 1 6 2c-1 0-2 1-3 1c0 3 0 5 0 8c-4-1-7-2-11-3c0-1-1-1-2-1c-1-1-3-2-5-2c-1-1-2-2-4-2c-11-5-22-10-33-15c0 0 0-1 0-1z"/><path fill="#2a1b1a" d="m375 238c1 0 3 0 4 0c0 1 1 3 1 4c-1 0-3 0-4 0c0-1-1-3-1-4z"/><path fill="#2a1b1a" d="m382 240c3 0 5 0 8 0c2 1 2 1 3 3c2 1 5 1 7 1c0 0 0 1 0 1c-2 0-5 0-7 0c0 2 0 3 0 5c-1-1-1-1-2-2c0 3 0 5 0 8c-3 0-5 0-8 0c0-1-1-3-1-4c1 0 2-1 3-1c0-4-1-7-3-11zm7 5c1 2 1 2 1 2z"/><path fill="#2a1b1a" d="m328 282c0 0 1 0 1 0c0 2 0 4 0 6c-4 0-9-1-13-1c0 0 0-1 0-1c3 0 6 0 9 0c0-1 0-1 0-2c1 0 1 0 2 0c0-1 1-1 1-2z"/><path fill="#2a1b1a" d="m364 287c1 0 3 0 4 0c0 1 0 1 0 2c-2 1-3 1-5 2c0-1 1-3 1-4z"/><path fill="#2a1b1a" d="m314 291c1 0 2 0 3 0c1 0 2 0 3 1c0 0 0 0 2 0c4 0 7 0 11-1c0 3 0 6 0 9c-6-1-11-2-17-3c0 0-1 0-2-1c-1 0-3-1-5-1c0 0 0-1 0-1c2 0 3 0 5 0c0-1 0-2 0-3z"/></g></svg>